<svg xmlns="http://www.w3.org/2000/svg" width="128" height="128" viewBox="0 0 128 128"><circle fill="#fff" cx="65" cy="63.999" r="60"/><path fill="#005BA5" d="M65 1.75c-34.38 0-62.25 27.87-62.25 62.25s27.87 62.25 62.25 62.25 62.25-27.87 62.25-62.25-27.87-62.25-62.25-62.25zm2.887 100.227c-6.11 4.773-11.632 7.161-16.567 7.161-3.398 0-5.867-.87-7.404-2.609-1.538-1.739-2.306-3.702-2.306-5.887 0-1.375.202-2.649.606-3.823.404-1.173.85-2.366 1.335-3.58l11.53-23.91c.647-1.375 1.112-2.488 1.396-3.337.283-.85.425-1.598.425-2.246 0-.646-.122-1.112-.364-1.396-.243-.283-.567-.425-.971-.425-1.053 0-3.095 1.599-6.129 4.794-3.034 3.196-4.835 4.794-5.401 4.794-.647 0-1.295-.444-1.942-1.335-.647-.89-.971-1.456-.971-1.699 0-.809.768-2.123 2.306-3.944 1.537-1.82 3.479-3.742 5.826-5.765 2.103-1.86 4.632-3.6 7.586-5.219 2.953-1.618 5.562-2.427 7.828-2.427 3.642 0 6.372 1.031 8.192 3.095s2.731 4.551 2.731 7.464c0 1.213-.122 2.509-.364 3.884-.243 1.375-.77 2.791-1.578 4.247l-9.224 20.27c-.728 1.699-1.254 3.074-1.578 4.126-.325 1.053-.486 1.781-.486 2.185 0 .485.122.789.364.91.243.122.485.183.728.183 1.78 0 3.863-1.274 6.251-3.823 2.387-2.549 3.903-3.823 4.551-3.823.566 0 1.173.425 1.821 1.274.646.85.971 1.437.971 1.76.001 1.293-3.055 4.327-9.162 9.101zm15.292-63.962c-2.145 2.185-4.754 3.277-7.828 3.277-2.994 0-5.583-1.092-7.768-3.277-2.185-2.185-3.277-4.773-3.277-7.768 0-2.993 1.093-5.583 3.277-7.768s4.773-3.277 7.768-3.277c3.074 0 5.684 1.092 7.828 3.277s3.217 4.774 3.217 7.768c0 2.995-1.073 5.583-3.217 7.768z"/></svg>