<svg xmlns="http://www.w3.org/2000/svg" width="128" height="128" viewBox="0 0 128 128"><circle fill="#006618" cx="64" cy="64" r="62.25"/><path fill="#fff" d="M24.015 39.585c.1-1.059.593-2.098 1.494-3.126l11.781-11.82c.384-.321.785-.453 1.198-.384.407.063.72.316.909.769l9.518 17.933c.51 1.059.354 2.068-.486 3.028l-4.323 4.324c-.804.806-1.264 1.83-1.393 3.077 0 1.214.417 2.692 1.247 4.424.831 1.729 1.847 3.396 3.028 4.997 1.182 1.598 2.369 3.111 3.556 4.522 1.19 1.41 2.201 2.549 3.03 3.412l1.245 1.248c.321.323.766.752 1.323 1.292.557.541 1.651 1.512 3.265 2.909 1.618 1.383 3.168 2.608 4.635 3.667 1.471 1.059 3.085 2.017 4.836 2.893 1.745.874 3.234 1.274 4.445 1.242 1.247 0 2.306-.434 3.175-1.292l5.094-5.095c.355-.35.828-.579 1.42-.674.592-.102 1.116-.018 1.558.234l17.21 10.144c.453.256.707.59.776 1.01.065.416-.069.802-.388 1.153l-11.823 11.827c-1.025.896-2.067 1.393-3.125 1.487-2.342.322-4.904.18-7.695-.456-2.788-.631-5.473-1.56-8.05-2.837-2.574-1.271-5.158-2.698-7.734-4.303-2.577-1.6-4.923-3.243-7.013-4.926-2.095-1.684-3.974-3.229-5.629-4.605-1.657-1.394-2.922-2.534-3.826-3.397l-1.393-1.344c-.354-.354-.822-.824-1.393-1.409-.576-.595-1.684-1.849-3.314-3.751-1.635-1.905-3.193-3.812-4.664-5.718-1.465-1.91-3.083-4.23-4.83-6.953-1.748-2.725-3.216-5.324-4.399-7.813-1.182-2.485-2.107-5.134-2.763-7.957-.658-2.824-.823-5.39-.502-7.732z"/></svg>