<svg xmlns="http://www.w3.org/2000/svg" width="128" height="128" viewBox="0 0 128 128"><circle fill="#fff" cx="64" cy="64" r="59.9"/><path fill="#00BC28" d="M64 1.8c-34.352 0-62.2 27.848-62.2 62.2 0 34.352 27.848 62.2 62.2 62.2 34.352 0 62.2-27.849 62.2-62.2 0-34.352-27.848-62.2-62.2-62.2zm.49 91.078c-4.868 0-9.517-.727-13.793-2.06-4.356 3.402-11.703 8.124-18.877 8.124 3.752-3.552 4.821-10.438 5.052-15.565-6.174-5.261-9.947-12.293-9.947-20.014 0-16.299 16.818-29.516 37.565-29.516 20.749 0 37.566 13.217 37.566 29.516.001 16.3-16.817 29.515-37.566 29.515z"/></svg>