<svg xmlns="http://www.w3.org/2000/svg" viewBox="-79 81 128 128"><g fill="#00E676"><path d="M-79 81v128h128v-128h-128zm63.5 106.7c-6.8 0-13.6-1.6-19.7-5l-21.9 5.6 5.9-21.4c-3.4-6.3-5.4-13.2-5.4-20.5-.3-22.8 18.2-41.5 41.3-41.5 10.8 0 21.4 4.3 29.1 12.2 7.7 7.7 12 18 12 29.2 0 22.7-18.6 41.4-41.3 41.4zM-33.4 117.2c-16.3 9.9-21 31.1-11.1 47.1l.9 1.3-3.4 12.9 13-3.4 1.3.7c5.2 3.2 11.3 4.7 17.4 4.7 6.3 0 12.6-1.7 17.8-5.1 16.3-9.9 21-30.8 11.1-47.1s-30.7-20.9-47-11.1zm38.4 41.2c-.7 3-2.7 4.9-5.3 6-2.6 1.2-5.6 1.4-8.3.4-12-4.4-28.1-14-28.1-28.4 0-1.9.6-4 1.6-5.9.6-1.1 2.9-3.8 5.7-3.8 1.2 0 2.2.4 2.8 1.3 1.5 2.5 4 7.4 4.1 8.3.8 2.2-1.6 3.5-2.8 5.2-.5.7-.5 1.6-.1 2.5 2.7 5 7.4 9.1 12.6 11.5 0 0 3.4.5 4.2-.4 1-1.1 1.8-2.5 2.5-3.3 1.8-1 6.6 1.5 9.5 3.1 1.2.7 2 2.2 1.6 3.5z"/></g></svg>