<svg xmlns="http://www.w3.org/2000/svg" width="128" height="128" viewBox="0 0 128 128"><circle fill="#fff" cx="65" cy="63.999" r="60"/><path d="M72.295 61.178c-2.806-3.328-5.003-7.01-6.725-10.772-2.223 6.05-5.776 12.914-11.431 23.978-.471.922-.935 1.809-1.393 2.667 4.177-2 14.308-6.352 27.553-8.692-2.968-2.089-5.724-4.478-8.004-7.181zm-7.295-59.428c-34.38 0-62.25 27.87-62.25 62.25s27.87 62.25 62.25 62.25 62.25-27.87 62.25-62.25-27.87-62.25-62.25-62.25zm26.277 68.28c10.677 5.347 20.369 6.56 21.733 3.825 0 0 .845 4.933-5.635 4.933-4.324 0-14.103-2.638-23.06-7.862-.629.1-1.268.204-1.922.316-16.381 2.829-25.936 5.895-30.694 7.734-10.764 19.528-17.592 21.61-18.732 21.854-1.227.263-3.94.088-6.041-1.926-2.102-2.015 1.027-7.026 6.041-11.729 3.844-3.607 11.467-6.564 11.467-6.564-17.681 16.544-14.618 18.207-14.618 18.207 8.754-1.75 22.149-28.625 29.676-44.118 1.596-3.284 2.945-6.393 4.086-9.257-2.76-7.866-3.699-15.58-3.974-20.713-.466-8.683 3.565-9.07 4.962-9.07 1.396 0 7.906-.465 4.959 11.085 0 0-.088-.412-.248-1.072.105-4.436-3.383-12.906-5.156-7.205 0 0-1.396 8.132 1.943 20.192 2.283-6.818 3.059-11.099 3.059-11.099-.131 6.642-.525 11.471-1.53 16.012 3.396 9.733 8.646 17.571 18.995 23.862.844-.097 1.689-.188 2.553-.264 22.209-1.979 25 1.047 24.303 5.812-.001.003-4.155-4.679-22.167-2.953z" fill="#ED1C24"/></svg>