<?xml version="1.0" encoding="utf-8"?>
<!-- Generator: Adobe Illustrator 19.1.0, SVG Export Plug-In . SVG Version: 6.00 Build 0)  -->
<svg version="1.1" id="larry" xmlns="http://www.w3.org/2000/svg" xmlns:xlink="http://www.w3.org/1999/xlink" x="0px" y="0px"
	 viewBox="-79 81 128 128" style="enable-background:new -79 81 128 128;" xml:space="preserve">
<style type="text/css">
	.st0{fill:#1DA1F2;}
</style>
<path class="st0" d="M-79,81v128H49V81H-79z M17.7,130.5c0,0.7,0,1.4,0,2.2c0,22.3-16.9,47.9-47.9,47.9c-9.5,0-18.4-2.8-25.8-7.6
	c1.3,0.2,2.7,0.2,4,0.2c7.9,0,15.2-2.7,20.9-7.2c-7.4-0.1-13.6-5-15.7-11.7c1,0.2,2.1,0.3,3.2,0.3c1.5,0,3-0.2,4.4-0.6
	c-7.7-1.5-13.5-8.4-13.5-16.5c0-0.1,0-0.1,0-0.2c2.3,1.3,4.9,2,7.6,2.1c-4.5-3-7.5-8.2-7.5-14c0-3.1,0.8-6,2.3-8.5
	c8.3,10.3,20.7,17,34.7,17.7c-0.3-1.2-0.4-2.5-0.4-3.8c0-9.3,7.5-16.8,16.8-16.8c4.8,0,9.2,2,12.3,5.3c3.8-0.8,7.4-2.2,10.7-4.1
	c-1.3,3.9-3.9,7.2-7.4,9.3c3.4-0.4,6.7-1.3,9.7-2.7C23.8,125.2,21,128.2,17.7,130.5z"/>
</svg>
