<svg xmlns="http://www.w3.org/2000/svg" viewBox="0 0 128 128" enable-background="new 0 0 128 128"><circle cx="64" cy="64" r="60" fill="#CCC"/><path fill="#fff" d="M40.4 46.3c-10.9 0-19.8 8.8-19.8 19.8 0 10.9 8.8 19.8 19.8 19.8s19.8-8.9 19.8-19.8-8.9-19.8-19.8-19.8zm46.9 0c-10.9 0-19.8 8.8-19.8 19.8 0 10.9 8.8 19.8 19.8 19.8s19.8-8.8 19.8-19.8c0-10.9-8.9-19.8-19.8-19.8z"/><path fill="#EDC96D" d="M79.3 44.4c2.4-.9 4.9-1.4 7.4-1.4-6.7-3-14.3-4.5-22.7-4.5-8.4 0-16.1 1.6-22.8 4.4 12.1.2 22 9.7 22.9 21.7.2-2.7.9-5.4 2.1-8 2.5-5.7 7.2-10 13.1-12.2z"/><path fill="#A52416" d="M40.4 62.2c-2.1 0-3.9 1.8-3.9 3.9 0 2.1 1.8 3.9 3.9 3.9 2.1 0 3.9-1.8 3.9-3.9 0-2.2-1.7-3.9-3.9-3.9z"/><path fill="#589442" d="M87.3 62.2c-2.1 0-3.9 1.8-3.9 3.9 0 2.1 1.8 3.9 3.9 3.9 2.1 0 3.9-1.8 3.9-3.9 0-2.2-1.7-3.9-3.9-3.9z"/><path d="M106.2 52.4c1.1-4.7 4.6-9.4 4.6-9.4h-15.7c-8.8-5.7-19.4-8.7-31.2-8.7-12.3 0-23.3 3.1-32 8.8h-14.6s3.5 4.6 4.6 9.3c-2.9 3.9-4.6 8.6-4.6 13.8 0 12.9 10.5 23.4 23.4 23.4 7.4 0 14-3.4 18.2-8.8l5 7.5 5-7.5c2.2 2.9 5.2 5.2 8.6 6.8 5.7 2.7 12.1 2.9 17.9.7 12.1-4.5 18.3-18 13.8-30.1-.6-2.1-1.7-4-3-5.8zm-65.4 32.6c-10.3 0-18.7-8.4-18.7-18.7 0-10.3 8.4-18.7 18.7-18.7s18.6 8.4 18.6 18.7c0 10.3-8.4 18.7-18.6 18.7zm23.3-20.4c-.9-12-10.7-21.4-22.9-21.7 6.7-2.9 14.4-4.4 22.8-4.4s16 1.5 22.7 4.5c-2.5.1-4.9.5-7.4 1.4-5.9 2.2-10.5 6.5-13.2 12.2-1.1 2.5-1.8 5.2-2 8zm29.8 19.3c-4.7 1.7-9.7 1.5-14.3-.6-4.5-2.1-8-5.8-9.7-10.5-1.7-4.7-1.5-9.7.5-14.3 2.1-4.5 5.8-8 10.5-9.7 9.7-3.6 20.4 1.4 24 11.1 3.6 9.7-1.4 20.4-11 24zm-53.5-29.4c-6.4 0-11.6 5.2-11.6 11.6 0 6.4 5.2 11.6 11.6 11.6 6.4 0 11.5-5.2 11.5-11.6.1-6.4-5.1-11.6-11.5-11.6zm0 19.2c-4.2 0-7.6-3.4-7.6-7.6 0-4.2 3.4-7.6 7.6-7.6 4.2 0 7.6 3.4 7.6 7.6s-3.4 7.6-7.6 7.6zm46.9-19.2c-6.4 0-11.6 5.2-11.6 11.6 0 6.4 5.2 11.6 11.6 11.6 6.4 0 11.6-5.2 11.6-11.6 0-6.4-5.2-11.6-11.6-11.6zm0 19.2c-4.2 0-7.6-3.4-7.6-7.6 0-4.2 3.4-7.6 7.6-7.6 4.2 0 7.6 3.4 7.6 7.6 0 4.2-3.4 7.6-7.6 7.6z"/></svg>