<svg xmlns="http://www.w3.org/2000/svg" width="128" height="128" viewBox="0 0 128 128"><circle fill="#fff" cx="64" cy="64" r="60"/><path fill="#D82532" d="M54.769 75.742l24.387-12.645-24.387-12.745v25.39zm9.231-71.857c-33.217 0-60.113 26.897-60.113 60.115 0 33.219 26.896 60.116 60.113 60.116 33.219 0 60.116-26.896 60.116-60.116 0-33.218-26.897-60.115-60.116-60.115zm44.359 78.179s-.902 6.223-3.611 8.932c-3.413 3.613-7.328 3.613-9.033 3.814-12.646.902-31.613.902-31.613.902s-23.485-.199-30.71-.902c-2.007-.402-6.523-.301-9.936-3.814-2.71-2.709-3.613-8.932-3.613-8.932s-.903-7.324-.903-14.652v-6.824c0-7.327.903-14.652.903-14.652s.903-6.223 3.613-8.932c3.412-3.613 7.327-3.613 9.031-3.814 12.646-.903 31.614-.903 31.614-.903s18.968 0 31.613.903c1.807.201 5.62.201 9.033 3.814 2.709 2.709 3.611 8.932 3.611 8.932s.903 7.325.903 14.652v6.824c.002 7.328-.902 14.652-.902 14.652z"/></svg>