<svg xmlns="http://www.w3.org/2000/svg" viewBox="-233 356.9 128 128" enable-background="new -233 356.9 128 128"><circle fill="#fff" cx="-169" cy="420.9" r="59.9"/><path fill="#DD4B39" d="M-169 361.1c-33.1 0-59.9 26.8-59.9 59.9s26.8 59.9 59.9 59.9 59.9-26.8 59.9-59.9-26.8-59.9-59.9-59.9zm23.2 55.9s-2.7 5.8-3.5 6.9l-19.5 31.6-19.5-31.2c-1-1.2-3.9-7.3-3.9-7.3-.8-2.4-1.2-5-1.2-7.6 0-13.5 10.9-24.4 24.4-24.4s24.4 10.9 24.4 24.4c0 2.7-.4 5.2-1.2 7.6z"/><circle fill="#DD4B39" cx="-169" cy="409.4" r="11.9"/></svg>