<svg xmlns="http://www.w3.org/2000/svg" viewBox="-929 526 60 30"><path fill="#00247D" d="M-929 526h60v30h-60v-30z"/><path fill="#00247D" d="M-898.9 526h29.9v30h-29.9v-30z"/><path fill="#FFF" d="M-921.2 538.6l-.2-.6-.3.6-.6.1.4.4v.5l.5-.2.5.2-.1-.5.4-.4zM-921.4 531.6l-.3.5-.6.1.5.4-.1.6.5-.3.5.3-.1-.6.4-.4-.6-.1zM-921.4 528.3l-.3.5-.6.1.5.4-.1.6.5-.3.5.3-.1-.6.4-.4-.6-.1zM-923.3 530l-.3.5-.5.1.4.4-.1.6.5-.3.5.3-.1-.6.4-.4-.6-.1zM-923.3 526.7l-.3.5-.5.1.4.4-.1.6.5-.3.5.3-.1-.6.4-.4-.6-.1zM-921.4 534.8l-.3.5-.6.1.4.4v.6l.5-.3.5.3-.1-.6.4-.4-.6-.1zM-919.6 530l-.2.5-.6.1.4.4-.1.6.5-.3.6.3-.1-.6.4-.4-.6-.1zM-923.3 533.2l-.3.6-.5.1.4.4-.1.5.5-.2.5.2-.1-.5.4-.4-.6-.1zM-919.3 540.2l-.3-.5-.2.5-.6.1.4.4-.1.6.5-.3.6.3-.1-.6.4-.4zM-919.6 526.7l-.2.5-.6.1.4.4-.1.6.5-.3.6.3-.1-.6.4-.4-.6-.1zM-919.6 536.4l-.2.6h-.6l.4.4-.1.6.5-.3.6.3-.1-.6.4-.4h-.6zM-919.6 533.2l-.2.6-.6.1.4.4-.1.5.5-.2.6.2-.1-.5.4-.4-.6-.1zM-927.1 526.7l-.2.5-.6.1.4.4-.1.6.5-.3.5.3-.1-.6.5-.4-.6-.1zM-927.1 533.2l-.2.6-.6.1.4.4-.1.5.5-.2.5.2-.1-.5.5-.4-.6-.1zM-927.1 530l-.2.5-.6.1.4.4-.1.6.5-.3.5.3-.1-.6.5-.4-.6-.1zM-927.1 536.4l-.2.6h-.6l.4.4-.1.6.5-.3.5.3-.1-.6.5-.4h-.6zM-908.8 528.3l.5-.3.5.3-.1-.6.4-.4-.5-.1-.3-.5-.2.5-.6.1.4.4zM-926.8 540.2l-.3-.5-.2.5-.6.1.4.4-.1.6.5-.3.5.3-.1-.6.5-.4zM-917.5 538.6l-.2-.6-.3.6-.6.1.5.4-.1.5.5-.2.5.2-.1-.5.4-.4zM-925.2 528.3l-.2.5-.6.1.4.4-.1.6.5-.3.5.3-.1-.6.4-.4-.5-.1zM-923.3 536.4l-.3.6h-.5l.4.4-.1.6.5-.3.5.3-.1-.6.4-.4h-.6zM-923.1 540.2l-.2-.5-.3.5-.5.1.4.4-.1.6.5-.3.5.3-.1-.6.4-.4zM-924.9 538.6l-.3-.6-.3.6-.5.1.4.4-.1.5.5-.2.5.2-.1-.5.4-.4zM-925.2 531.6l-.2.5-.6.1.4.4-.1.6.5-.3.5.3-.1-.6.4-.4-.5-.1zM-925.2 534.8l-.3.5-.5.1.4.4-.1.6.5-.3.5.3-.1-.6.4-.4-.5-.1zM-908.3 536.4l-.2.6h-.6l.4.4-.1.6.5-.3.5.3-.1-.6.4-.4h-.5zM-912 526.7l-.3.5-.6.1.4.4-.1.6.6-.3.5.3-.1-.6.4-.4-.6-.1zM-912 530l-.3.5-.6.1.4.4-.1.6.6-.3.5.3-.1-.6.4-.4-.6-.1zM-909.9 538.6l-.3-.6-.2.6-.6.1.4.4-.1.5.5-.2.5.2v-.5l.4-.4zM-910.2 534.8l-.2.5-.6.1.4.4-.1.6.5-.3.5.3v-.6l.4-.4-.6-.1zM-912 536.4l-.3.6h-.6l.4.4-.1.6.6-.3.5.3-.1-.6.4-.4h-.6zM-912 533.2l-.3.6-.6.1.4.4-.1.5.6-.2.5.2-.1-.5.4-.4-.6-.1zM-910.2 528.3l-.2.5-.6.1.4.4-.1.6.5-.3.6.3-.1-.6.4-.4-.6-.1zM-910.2 531.6l-.2.5-.6.1.4.4-.1.6.5-.3.6.3-.1-.6.4-.4-.6-.1zM-908.3 533.2l-.2.6-.6.1.4.4-.1.5.5-.2.5.2-.1-.5.4-.4-.5-.1zM-908.3 530l-.2.5-.6.1.4.4-.1.6.5-.3.5.3-.1-.6.4-.4-.5-.1zM-917.7 534.8l-.3.5-.6.1.5.4-.1.6.5-.3.5.3-.1-.6.4-.4-.6-.1zM-908 540.2l-.3-.5-.2.5-.6.1.4.4-.1.6.5-.3.5.3-.1-.6.4-.4zM-911.8 540.2l-.2-.5-.3.5-.6.1.4.4-.1.6.6-.3.5.3-.1-.6.4-.4zM-915.8 533.2l-.3.6-.6.1.4.4-.1.5.6-.2.5.2-.1-.5.4-.4-.6-.1zM-915.6 540.2l-.2-.5-.3.5-.6.1.4.4-.1.6.6-.3.5.3-.1-.6.4-.4zM-915.8 536.4l-.3.6h-.6l.4.4-.1.6.6-.3.5.3-.1-.6.4-.4h-.6zM-917.7 528.3l-.3.5-.5.1.4.4-.1.6.5-.3.5.3-.1-.6.4-.4-.6-.1zM-913.9 528.3l-.3.5-.5.1.4.4-.1.6.5-.3.5.3-.1-.6.4-.4-.6-.1zM-917.7 531.6l-.3.5-.6.1.5.4-.1.6.5-.3.5.3-.1-.6.4-.4-.6-.1zM-913.9 534.8l-.3.5-.5.1.4.4-.1.6.5-.3.5.3-.1-.6.4-.4-.6-.1zM-915.8 530l-.3.5-.6.1.4.4-.1.6.6-.3.5.3-.1-.6.4-.4-.6-.1zM-913.9 531.6l-.3.5-.5.1.4.4-.1.6.5-.3.5.3-.1-.6.4-.4-.6-.1zM-913.7 538.6l-.2-.6-.3.6-.5.1.4.4-.1.5.5-.2.5.2-.1-.5.4-.4zM-915.8 526.7l-.3.5-.6.1.4.4-.1.6.6-.3.5.3-.1-.6.4-.4-.6-.1zM-869 526h-10.5l-19.5 11.2v8.1l18.5 10.7h11.5v-1.4l-23-13.3 23-13.3z"/><path fill="#CF142B" d="M-889.8 546.3l16.7 9.7h4.1l-16.8-9.7zM-889 535.3l16.2-9.3h-4l-16.2 9.3h4z"/><path fill="#FFF" d="M-894 535.3v-9.3h-12.4v16.2h-22.6v13.8h35v-9.7h25v-11z"/><path fill="#CF142B" d="M-896 537.5v-11.5h-10.399999999999999v2.3h7.3v2.3h-7.3v2.3h7.3v2.3h-7.3v2.3h7.3v2.3h-7.3v2.4h7.3v2.3h-29.9v2.3h29.9v2.3h-29.9v2.3h29.9v2.3h-29.9v2.3h33v-11.5h27v-7z"/><path stroke="#00247D" stroke-width="0.2" d="M-899 526v30.2"/></svg>