<svg xmlns="http://www.w3.org/2000/svg" viewBox="-74.8 133 76.3 24" enable-background="new -74.8 133 76.3 24"><style type="text/css">.st0{fill:#FF4400;}</style><title>Logo</title><path class="st0" d="M-4 149.9v6.5c0 .3-.1.4-.4.4h-1.2c-.3 0-.4-.1-.4-.4v-8.4h2.4c.9 0 .7-.2 1 .7.7 2 1.4 4 2 6 0 .1.1.1.2.2v-6.5c0-.3.1-.4.4-.4h1.2c.3 0 .4.1.4.4v8.200000000000001c0 .2-.1.3-.3.3h-2.4c-.3 0-.3-.2-.4-.4l-2.2-6.3c-.2-.1-.2-.2-.3-.3zM-.6 138.4v-3.4c0-.3.1-.4.4-.4h1.4c.2 0 .3.1.3.3v9.1c0 .2-.1.3-.3.3h-1.4c-.3 0-.4-.1-.4-.4v-3.3c0-.3-.1-.4-.4-.4h-2.7c-.3 0-.4.1-.4.4v3.2c0 .3-.1.4-.4.4h-1.4c-.2 0-.3-.1-.3-.3v-9.1c0-.2.1-.3.3-.3h1.5c.3 0 .3.1.3.3v3c0 .6 0 .5.5.5 1 .1 2 .1 3 .1zM-72.4 135.2v3c0 .2.1.3.3.3h3.5999999999999996v1.9c0 .1-.2.2-.3.2h-3.1c-.5 0-.5 0-.5.5v2.9c0 .3-.1.3-.3.3h-1.7c-.3 0-.4-.1-.4-.4v-10.4c0-.5 0-.5.5-.5h6.5c.3 0 .4.1.4.4v1.4c0 .3-.1.4-.4.4h-4.6000000000000005zM-19.9 140.4v1.8c0 .2.2.2.3.2h3.3c.7 0 .6-.1.6.6v.9c0 .4-.1.4-.4.4h-5.5c-.3 0-.4-.1-.4-.4v-8.9c0-.2.1-.3.3-.3h5.8c.2 0 .3.1.3.3v1.2c0 .3-.1.4-.4.4h-3.5c-.3 0-.4.1-.4.4v1.4c0 .2.1.3.3.3h2.7c.3 0 .4.1.4.4v1c0 .3-.1.4-.4.4h-2.7c-.1-.1-.2-.1-.3-.1zM-28.3 135.2h-2.4c-.5 0-.5 0-.5-.5v-1.5c0-.2.1-.3.3-.3h7.4c.2 0 .3.1.3.3v1.6c0 .2-.1.3-.3.3h-2.1c-.3 0-.4.1-.4.4v8.2c0 .5 0 .5-.4.5h-1.6c-.3 0-.4-.1-.4-.4v-8.1c.1-.1.1-.3.1-.5zM-33.6 151.3v-3c0-.3.1-.3.3-.3h1.2c.3 0 .4.1.4.4v5.9c.1.6.3.9.9.9.4.1.8.1 1.2 0 .6-.1.9-.5.9-1.2v-5.7c0-.2.1-.3.3-.3h1.4c.2 0 .3.1.3.3 0 2.1 0 4.1-.1 6.2 0 1.4-.7 2.1-2.1 2.4-1 .2-2 .2-3-.1-1.1-.3-1.7-1.2-1.7-2.4-.1-1.1 0-2.1 0-3.1zM-62.6 149.7v1.8c0 .1.2.2.3.2h2.8v1.5c0 .1-.2.1-.3.1h-2.8v1.7c0 .1.2.1.3.1h3.1c.5 0 .5 0 .5.5v.9c0 .3-.1.4-.4.4h-5.1c-.2 0-.3-.1-.3-.3v-8.2c0-.2.1-.3.3-.3h5.2c.2 0 .3.1.3.3v1.1c0 .2-.1.3-.3.3h-3.3c-.1-.1-.2-.1-.3-.1zM-57.7 148h1.8c.1 0 .2.2.2.3l.9 3.8.6 2.9c0 .1 0 .3.3.3.2 0 .2-.2.3-.3.5-2.1 1-4.3 1.4-6.4.1-.5.1-.5.6-.5h1.5l-.1.6-1.9 7.8c-.1.4-.2.5-.6.5h-2.5c-.3 0-.4-.1-.4-.3l-2-8.2c-.1-.3-.1-.4-.1-.5zM-7.7 142.3v1.5c0 .1-.1.2-.2.2-1.3.2-2.6.4-4 .1-1.1-.2-1.8-.9-2.1-2-.2-.5-.3-1-.3-1.6-.1-1.3-.1-2.6.2-3.8.4-1.5 1.4-2.4 3-2.4 1.1 0 2.1.2 3.2.3.2 0 .2.1.2.3 0 .4 0 .9-.1 1.3 0 .1-.1.2-.2.2l-1.8-.1h-.1c-1.4-.1-2.1.4-2.2 1.8-.1 1-.1 2 .1 2.9.2 1 .7 1.4 1.7 1.4l1.8-.1h.8zM-23.5 153.3v-3.2c0-.3-.1-.3-.3-.3h-1.6c-.2 0-.3-.1-.3-.3v-1.2c0-.2.1-.3.3-.3h5.8c.2 0 .3.1.3.3v1.2c0 .2-.1.3-.3.3h-1.5c-.3 0-.4.1-.4.4v6.3c0 .3-.1.4-.4.4h-1.2c-.2 0-.3-.1-.3-.3-.1-1.2-.1-2.2-.1-3.3zM-40.1 152.4v-4.1c0-.3.1-.4.4-.4h1.2c.3 0 .4.1.4.4v6.3c0 .4 0 .4.4.4h2.4c.3 0 .4.1.4.4v1.1c0 .3-.1.3-.3.3h-4.5c-.3 0-.4-.1-.3-.4-.1-1.3-.1-2.7-.1-4zM-58.6 139.4v-4.4c0-.3.1-.4.4-.4h1.4c.3 0 .4.1.4.4v9c0 .3-.1.4-.4.4h-1.4c-.3 0-.4-.1-.4-.4v-4.6zM-18.5 152.4v-4c0-.3.1-.4.4-.4h1.3c.2 0 .3.1.3.3v8.3c0 .2-.1.3-.3.3h-1.3c-.3 0-.4-.1-.4-.4v-4.1zM-36.6 141.3h-4.2c-.2 0-.3-.1-.3-.3v-1.2c0-.2.1-.3.3-.3h3.9c.2 0 .3.1.3.3v1.5zM-68.1 152.7c.7-.4 1.2-1 1.5-1.7.2-.7.2-1.4.2-2.1-.1-1.5-.9-2.5-2.4-2.9-.5-.1-1-.2-1.5-.2h-4.2c-.3 0-.4.1-.4.4v10.5c0 .3.1.4.4.4h1.7c.3 0 .4-.1.4-.4v-2.9c0-.3.1-.4.4-.4h1.3c.3 0 .4.1.4.3l1.1 3c.1.2.2.3.4.3h2.3l-.8-2.1c-.2-.7-.5-1.4-.8-2.2zm-.8-2.9c0 .8-.7 1.4-1.5 1.5h-1.8c-.2 0-.3-.1-.3-.3v-2.9c0-.1.1-.2.2-.2h2.1c.9.2 1.4.9 1.3 1.9zM-48.5 140.8c-.1-.2-.1-.3.1-.4 1.3-1 1.7-3.1.8-4.5-.6-.9-1.4-1.2-2.4-1.3l-4.1-.1c-.3 0-.4.1-.4.4v8.9c0 .3.1.4.4.4h1.4c.3 0 .3-.1.3-.3v-2.5c0-.2.1-.3.3-.3h1.2c.2 0 .3.1.4.3l.9 2.6c.1.2.2.3.4.3h2c-.1-.2-.1-.3-.1-.4-.4-1.1-.8-2.1-1.2-3.1zm-1.9-1.6c-.6.1-1.2 0-1.8 0-.1 0-.2-.2-.2-.3v-2.3c0-.2.1-.3.3-.3h1.5c.7 0 1.2.5 1.3 1.2.1 1-.3 1.6-1.1 1.7zM-59.9 143.9l-2.1-9c-.1-.2-.2-.3-.4-.3h-3.1c-.3 0-.4.1-.4.4-.6 2.8-1.3 5.6-2 8.4l-.2.9h1.9c.1 0 .2-.1.2-.2l.3-1.2c0-.1.2-.2.3-.2h2.7c.1 0 .3.1.3.2l.3 1.2c0 .1.1.2.2.2h1.9c.1-.3.1-.3.1-.4zm-5.3-3.2l.2-1 .7-3.1c0-.1.2-.2.3-.3.2-.1.2.1.3.2v.1c.3 1.3.6 2.6.9 4-.8.1-1.6.1-2.4.1zM-41.9 150.5c-.3-1.3-1-2.2-2.4-2.5-.6-.1-1.2-.1-1.8-.1-1.4.1-2.5.9-2.9 2.2-.5 1.5-.5 3.1 0 4.6.3 1.1 1 1.9 2.2 2.2.8.2 1.6.2 2.4 0 1.2-.2 2.1-1 2.4-2.2.2-.7.2-1.5.3-2.1 0-.8 0-1.5-.2-2.1zm-1.9 3.6c-.2.8-.7 1.2-1.5 1.2-.9 0-1.4-.3-1.7-1.1-.3-1.2-.3-2.4 0-3.5.2-.8.7-1.1 1.6-1.1.8 0 1.3.3 1.6 1.1.1.2.1.3.1.5 0 .4.1.9.1 1.5-.1.3-.1.9-.2 1.4zM-7.7 150.7c-.1-.7-.4-1.4-.9-1.9-.7-.8-1.7-.9-2.8-.9-1.8 0-3 .8-3.4 2.6-.3 1.3-.3 2.6-.1 3.8.3 1.4 1.1 2.4 2.6 2.7.6.1 1.2.1 1.8 0 1.5-.1 2.4-.9 2.8-2.4.3-1.3.3-2.6 0-3.9zm-1.9 3.2c-.2 1-.7 1.4-1.6 1.4-1 0-1.5-.4-1.7-1.4-.2-1-.2-2 0-3 .2-1.1 1-1.5 2.2-1.3.5.1.8.5.9.9l.2.6c.1.4.1.9.1 1.4 0 .4 0 .9-.1 1.4z"/></svg>