<svg xmlns="http://www.w3.org/2000/svg" viewBox="0 0 610 300" enable-background="new 0 0 610 300"><path fill="#C01933" d="M97.056 111.498h90.058v90.059h-90.058z"/><path fill="#020000" d="M202.48 199.253h7.952c25.075 0 27.12-20.725 27.12-43.24 0-24.436-2.175-42.216-25.456-42.216h-9.615l-.001 85.456zm-32.986 0h10.366v-85.456h-10.366v-2.307h46.802c26.737 0 45.415 17.404 45.415 45.676 0 16.118-9.848 44.383-44.646 44.383h-47.572l.001-2.296zm115.626-12.027c0 9.599 3.965 13.561 10.492 13.561 6.525 0 10.49-3.962 10.49-13.561v-27.633c0-9.596-3.965-13.558-10.49-13.558-6.527 0-10.492 3.962-10.492 13.558v27.633zm10.492-43.494c16.888 0 30.445 12.153 30.445 29.676 0 17.524-13.558 29.684-30.445 29.684s-30.448-12.159-30.448-29.684c0-17.523 13.562-29.676 30.448-29.676M382.599 181.599h2.311c2.296 9.334 10.225 19.188 19.952 19.188 6.907 0 12.532-4.223 12.532-11.005 0-5.882-3.835-6.774-13.046-7.927-9.723-1.15-22.261-2.559-22.261-19.061 0-8.188 6.272-19.062 19.062-19.062 5.885 0 9.211 2.81 13.301 2.81 2.435 0 3.965-1.272 3.965-2.81h1.919l.774 18.165h-2.051c-3.193-8.311-8.312-15.863-17.908-15.863-6.91 0-12.153 3.581-12.153 9.594 0 5.63 4.478 6.781 11.646 7.801 13.685 1.926 24.43 3.078 24.43 18.682 0 10.486-8.312 20.98-20.47 20.98-7.163 0-11.129-3.066-14.453-3.066-2.561 0-4.604 1.015-5.24 3.066h-2.311l.001-21.492zm84.947-10.106l-10.11 1.023c-8.311.889-9.079 5.373-9.079 12.145 0 6.655.385 14.589 9.079 14.589 6.02 0 9.853-6.141 10.11-12.922v-14.835zm16.881 19.828c0 3.966.639 6.396 2.941 6.396 3.075 0 4.479-3.834 4.479-7.171h2.302c0 7.553-5.372 12.542-13.689 12.542-5.76 0-10.486-2.688-12.789-8.056-3.326 6.14-12.156 8.056-17.142 8.056-9.855 0-19.832-4.476-19.832-15.61 0-13.307 12.668-16.367 24.302-17.265l12.547-1.029v-10.745c0-7.675-1.284-12.405-10.876-12.405-4.351 0-11.771 1.021-11.642 3.836.124 2.177 6.521 1.789 6.521 7.934 0 4.473-2.938 7.679-7.806 7.679-5.755 0-8.315-3.842-8.315-8.318 0-7.17 9.348-13.433 22.134-13.433 13.175 0 26.864 3.582 26.864 18.165v29.424h.001zm9.596 7.932h8.821v-85.456h-8.821v-2.307h8.062c9.077 0 16.114 0 18.416-3.834v91.597h8.829v2.296h-35.307v-2.296zm-116.205-52.772c-4.993-4.998-15.792-2.923-24.771 5.818v-10.365c-2.687 3.333-12.151 3.333-17.396 3.333h-8.824v2.308h8.824v51.675h-8.824v2.297h38.248v-2.297h-12.025v-43.507c.527-.68 1.148-1.386 1.884-2.12 3.074-3.068 9.043-7.594 10.942-5.51 1.452 1.624-3.344 5.873.999 10.224 3.165 3.165 7.505 3.344 10.943-.094 4.074-4.072 3.168-8.597 0-11.762"/><path fill="#fff" d="M188.916 157.707c-13.176 0-39.16 11.301-69.283 11.301-10.54 0-22.581-3.773-22.581-3.773v11.702s12.041 3.771 22.581 3.771c30.123 0 56.106-11.292 69.283-11.292 6.028 0 13.561 3.769 13.561 3.769v-11.71c0-.001-7.533-3.768-13.561-3.768"/><path fill="#020000" d="M530.229 110.814v2.506h1.28c.677 0 1.15-.06 1.434-.172.435-.191.651-.565.651-1.134 0-.8-.581-1.2-1.736-1.2h-1.629zm-1.24 6.882v-7.886h3.059c1.845 0 2.781.744 2.781 2.241 0 1.231-.702 1.953-2.098 2.16l2.257 3.486h-1.315l-2.146-3.393h-1.298v3.393l-1.24-.001zm-2.929-4.085c0 1.664.503 3.05 1.518 4.163 1.054 1.157 2.399 1.725 4.057 1.725 1.599 0 2.924-.559 3.979-1.683 1.034-1.105 1.548-2.456 1.548-4.073 0-1.607-.514-2.954-1.548-4.051-1.058-1.115-2.384-1.667-3.979-1.667-1.566 0-2.885.54-3.966 1.623-1.073 1.083-1.609 2.405-1.609 3.963m-1.234.237c0-1.935.647-3.559 1.947-4.871 1.292-1.302 2.908-1.956 4.857-1.956 1.896 0 3.493.641 4.803 1.944 1.298 1.294 1.955 2.892 1.955 4.778 0 1.896-.657 3.495-1.955 4.804-1.31 1.307-2.906 1.959-4.803 1.959-1.861 0-3.463-.647-4.8-1.94-1.334-1.293-2.004-2.866-2.004-4.718M327.689 233.549h1.683v-13.084h-1.683v13.084zm0-15.54h1.683v-2.559h-1.683v2.559zm4.934-2.561h1.682v18.101h-1.682zm12.333 5.02h1.548v3.067h.053c.855-2.103 2.723-3.345 5.209-3.246v1.599c-3.047-.152-5.131 1.978-5.131 4.691v6.972h-1.679v-13.083zm8.43 13.081h1.683v-13.084h-1.683v13.084zm0-15.54h1.683v-2.559h-1.683v2.559zm11.426 3.424c-3.712 0-4.83 2.612-4.83 5.58 0 2.709 1.253 5.575 4.83 5.575 3.203 0 4.508-2.866 4.508-5.575-.001-2.717-1.303-5.58-4.508-5.58m-6.513-.965h1.545v2.484h.059c.771-1.773 2.698-2.863 4.911-2.863 4.188 0 6.189 3.223 6.189 6.924 0 3.7-2.002 6.92-6.189 6.92-2.059 0-4.062-.988-4.776-2.867h-.054v7.33h-1.685v-17.928zm16.308 6.543c0 2.788 1.601 5.576 4.825 5.576 3.229 0 4.834-2.788 4.834-5.576 0-2.79-1.604-5.578-4.834-5.578-3.224 0-4.825 2.788-4.825 5.578m11.339 0c0 3.751-2.299 6.924-6.514 6.924-4.217 0-6.516-3.173-6.516-6.924 0-3.756 2.299-6.922 6.516-6.922 4.215 0 6.514 3.166 6.514 6.922M396.7 224.296c-.078-1.977-1.679-2.863-3.604-2.863-1.495 0-3.255.558-3.255 2.258 0 1.418 1.706 1.925 2.855 2.203l2.243.481c1.921.278 3.92 1.346 3.92 3.628 0 2.838-2.962 3.93-5.528 3.93-3.194 0-5.386-1.423-5.653-4.617h1.685c.13 2.158 1.816 3.27 4.056 3.27 1.575 0 3.764-.657 3.764-2.479 0-1.523-1.497-2.027-3.017-2.385l-2.166-.457c-2.186-.558-3.842-1.27-3.842-3.498 0-2.662 2.756-3.678 5.175-3.678 2.756 0 4.943 1.366 5.045 4.207h-1.678zm5.581 2.715c0 2.788 1.6 5.576 4.828 5.576 3.229 0 4.833-2.788 4.833-5.576 0-2.79-1.604-5.578-4.833-5.578-3.227 0-4.828 2.788-4.828 5.578m11.34 0c0 3.751-2.299 6.924-6.512 6.924-4.219 0-6.518-3.173-6.518-6.924 0-3.756 2.299-6.922 6.518-6.922 4.213 0 6.512 3.166 6.512 6.922"/><path fill="#020000" d="M429.152 232.587c3.572 0 4.831-2.865 4.831-5.576 0-2.715-1.259-5.58-4.831-5.58-3.205 0-4.513 2.865-4.513 5.58.003 2.711 1.308 5.576 4.513 5.576m6.509.964h-1.541v-2.483h-.06c-.718 1.699-2.906 2.865-4.907 2.865-4.191 0-6.192-3.222-6.192-6.922 0-3.703 2.001-6.92 6.192-6.92 2.058 0 4.055.987 4.773 2.861h.058v-7.504h1.678v18.103h-.001zm3.231-.002h1.683v-13.084h-1.683v13.084zm0-15.54h1.683v-2.559h-1.683v2.559zm12.304 2.459h1.681v2.258h.054c.61-1.572 2.454-2.637 4.402-2.637 3.865 0 5.045 1.928 5.045 5.047v8.415h-1.682v-8.164c0-2.257-.776-3.954-3.493-3.954-2.672 0-4.272 1.926-4.326 4.485v7.633h-1.681v-13.083zm23.161 5.935h-.056c-.217.378-.962.507-1.415.582-2.853.479-6.401.457-6.401 3.018 0 1.596 1.495 2.585 3.07 2.585 2.56 0 4.827-1.549 4.802-4.104v-2.081zm-8.965-1.925c.158-3.067 2.43-4.389 5.578-4.389 2.43 0 5.072.71 5.072 4.205v6.948c0 .61.315.967.985.967.187 0 .4-.051.531-.104v1.346c-.374.076-.643.103-1.097.103-1.708 0-1.974-.913-1.974-2.276h-.05c-1.182 1.692-2.38 2.662-5.021 2.662-2.531 0-4.618-1.192-4.618-3.832 0-3.676 3.766-3.806 7.396-4.211 1.385-.148 2.157-.326 2.157-1.772 0-2.154-1.625-2.687-3.603-2.687-2.081 0-3.631.912-3.688 3.045h-1.674v-.004h.006zm16.677-4.01h2.805v1.348h-2.805v8.818c0 1.038.162 1.649 1.359 1.727.48 0 .964-.026 1.443-.075v1.368l-1.496.051c-2.243 0-3.017-.712-2.988-2.939v-8.947h-2.4v-1.348h2.4v-3.927h1.682v3.924zm16.389 13.083h-1.549v-2.356h-.054c-.878 1.75-2.695 2.738-4.749 2.738-3.474 0-4.832-1.925-4.832-4.969v-8.495h1.681v8.517c.079 2.361 1.014 3.604 3.685 3.604 2.885 0 4.14-2.584 4.14-5.247v-6.87h1.681l-.003 13.078zm3.172-13.083h1.546v3.067h.058c.854-2.103 2.724-3.345 5.207-3.246v1.599c-3.044-.152-5.128 1.978-5.128 4.691v6.972h-1.683v-13.083zm17.213 5.935h-.05c-.217.378-.963.507-1.42.582-2.854.479-6.404.457-6.404 3.018 0 1.596 1.496 2.585 3.072 2.585 2.561 0 4.827-1.549 4.802-4.104v-2.081zm-8.965-1.925c.156-3.067 2.425-4.389 5.575-4.389 2.427 0 5.073.71 5.073 4.205v6.948c0 .61.316.967.983.967.188 0 .401-.051.535-.104v1.346c-.374.076-.64.103-1.1.103-1.701 0-1.974-.913-1.974-2.276h-.051c-1.173 1.692-2.378 2.662-5.015 2.662-2.536 0-4.621-1.192-4.621-3.832 0-3.676 3.761-3.806 7.395-4.211 1.387-.148 2.159-.326 2.159-1.772 0-2.154-1.625-2.687-3.599-2.687-2.084 0-3.633.912-3.688 3.045h-1.677v-.004h.005z"/></svg>