<svg xmlns="http://www.w3.org/2000/svg" xmlns:xlink="http://www.w3.org/1999/xlink" viewBox="7 270.89 610 300" enable-background="new 7 270.89 610 300"><path d="M243.521 375.194l-4.115 11.012s-23.861-19.48-49.355-19.48c-12.99 0-20.574 11.798-20.574 11.798s4.141 7.617 20.544 16.839c25.017 14.064 46.404 26.378 46.404 40.606 0 7.602-4.014 19.018-22.879 33.851-9.543 7.502-27.203 12.986-43.449 9.263-19.492-4.341-34.485-19.015-34.485-19.015l3.264-11.91s22.876 19.018 48.374 19.018c14.523 0 25.509-13.756 25.509-13.756s-4.883-5.707-21.421-15.851c-23.786-14.595-46.124-25.162-46.124-37.971 0-7.6 1.694-19.018 20.555-33.85 9.543-7.505 27.203-12.987 43.453-9.264 19.488 4.341 34.299 18.71 34.299 18.71"/><defs><path id="a" d="M133.503 392.26c0 17.817 14.445 32.263 32.262 32.263s30.639-13.631 30.639-31.45c0-17.817-12.822-33.074-30.639-33.074s-32.262 14.444-32.262 32.261"/></defs><clipPath id="b"><use xlink:href="#a" overflow="visible"/></clipPath><radialGradient id="c" cx="8.271" cy="306.875" r="1.91" gradientTransform="matrix(16.68 0 0 16.68 26.995 -4726.416)" gradientUnits="userSpaceOnUse"><stop offset="0" stop-color="#E5B9A9"/><stop offset="0" stop-color="#E5B9A9"/><stop offset=".111" stop-color="#DD9888"/><stop offset=".355" stop-color="#C94636"/><stop offset=".395" stop-color="#C53828"/><stop offset=".46" stop-color="#AF3224"/><stop offset=".596" stop-color="#772218"/><stop offset=".789" stop-color="#1D0806"/><stop offset=".849"/><stop offset="1"/></radialGradient><path clip-path="url(#b)" fill="url(#c)" d="M133.503 359.998h62.901v64.524h-62.901v-64.524z"/><defs><path id="d" d="M212.758 453.42s-4.883-5.708-21.421-15.852c-23.786-14.593-46.128-25.161-46.128-37.969 0-7.6 1.697-19.018 20.559-33.85 9.543-7.506 27.203-12.988 43.453-9.265 19.488 4.341 34.299 18.711 34.299 18.711l-4.115 11.011s-23.861-19.478-49.359-19.478c-12.982 0-20.566 11.796-20.566 11.796s4.137 7.618 20.54 16.839c25.017 14.064 46.4 26.378 46.4 40.608 0 7.6-4.01 19.017-22.876 33.85-9.543 7.504-27.203 12.986-43.449 9.263-19.492-4.342-34.485-19.015-34.485-19.015l3.26-11.911s22.879 19.017 48.378 19.017c14.524-.001 25.51-13.755 25.51-13.755m-93.576-35.636c0 38.871 31.508 70.386 70.384 70.386 38.872 0 70.384-31.515 70.384-70.386 0-38.873-31.512-70.385-70.384-70.385-38.876 0-70.384 31.512-70.384 70.385"/></defs><clipPath id="e"><use xlink:href="#d" overflow="visible"/></clipPath><radialGradient id="f" cx="17.182" cy="283.157" r="1.91" gradientTransform="matrix(50.724 0 0 49.19 -692.91 -13525.772)" gradientUnits="userSpaceOnUse"><stop offset="0" stop-color="#FFF33E"/><stop offset=".07" stop-color="#FFF33E"/><stop offset=".24" stop-color="#FDD42E"/><stop offset=".347" stop-color="#FCC526"/><stop offset=".694" stop-color="#C53828"/><stop offset="1" stop-color="#C53828"/></radialGradient><path clip-path="url(#e)" fill="url(#f)" d="M119.182 347.399h140.768v140.771h-140.768v-140.771z"/><path fill="#828282" d="M521.19 419.229c-.401-.639-.74-1.093-1.016-1.365-.148-.141-.342-.263-.585-.365.592-.045 1.066-.255 1.422-.628.363-.372.544-.81.544-1.313 0-.357-.106-.692-.324-1.009-.213-.316-.502-.536-.862-.661-.363-.13-.948-.195-1.755-.195h-2.364v6.883h1.11v-2.923h.652c.391.001.687.079.89.237.294.215.68.749 1.161 1.601l.611 1.085h1.355l-.839-1.347zm-2.484-2.527h-1.347v-2.078h1.263c.541.001.911.04 1.11.12.204.078.361.2.474.364.113.159.171.34.171.544 0 .316-.12.57-.356.763-.232.191-.669.287-1.315.287zm5.884-2.865c-.571-1.028-1.369-1.817-2.391-2.365-1.022-.554-2.07-.831-3.143-.831-1.075.001-2.123.277-3.146.831-1.022.548-1.823 1.337-2.399 2.365-.571 1.024-.856 2.092-.856 3.205 0 1.102.282 2.161.846 3.179.567 1.017 1.355 1.809 2.366 2.373 1.018.559 2.08.839 3.187.839 1.105 0 2.167-.28 3.178-.839 1.018-.565 1.807-1.356 2.364-2.373.567-1.017.849-2.077.849-3.179.001-1.114-.284-2.182-.855-3.205zm-.906 5.858c-.469.842-1.129 1.5-1.975 1.975-.847.469-1.732.703-2.653.703-.923 0-1.807-.234-2.653-.703-.849-.476-1.51-1.133-1.985-1.975-.469-.848-.703-1.732-.703-2.653 0-.928.241-1.817.719-2.67.481-.859 1.145-1.517 1.994-1.975.854-.463 1.728-.695 2.628-.695.893 0 1.765.232 2.618.695.854.458 1.517 1.117 1.991 1.975.481.854.722 1.743.722 2.67 0 .921-.236 1.805-.703 2.653z"/><path d="M421.93 481.397l-1.138 7.25h3.925l1.142-7.25 6.808-7.851h-4.704l-3.466 4.107-2.182-4.107h-4.708l4.323 7.851zm-15.933-1.182l-.503 3.085h3.204c-.422 1.744-1.862 2.624-3.563 2.624-2.585 0-3.63-2.384-3.245-4.727.358-2.305 2.1-4.768 4.685-4.768 1.582 0 2.563.962 2.884 2.402l3.966-1.561c-.862-2.826-3.044-4.225-6.148-4.225-4.865 0-8.696 3.223-9.472 8.131-.742 4.747 2.04 7.97 6.786 7.97 2.526 0 4.887-.901 6.693-2.964 1.641-1.882 2.1-3.764 2.499-5.969h-7.786v.002zm-12.095-2.025c.5-3.223-1.544-4.645-4.525-4.645h-5.868l-2.384 15.101h3.924l.922-5.808 2.824 5.808h4.887l-3.764-6.188c2.201-.381 3.641-2.182 3.984-4.268zm-4.125.243c-.261 1.641-1.742 1.884-3.025 1.884h-.38l.603-3.768h.377c1.283 0 2.686.243 2.425 1.884zm-11.853-1.563l.519-3.324h-8.592l-2.38 15.101h8.592l.519-3.326h-4.667l.422-2.602h4.424l.522-3.326h-4.424l.399-2.524h4.666zm-30.736 11.777h3.925l1.458-9.254 5.771 9.254h3.925l2.384-15.101h-3.925l-1.462 9.231-5.767-9.231h-3.925zm-3.2-11.777l.519-3.324h-8.592l-2.384 15.101h8.591l.522-3.326h-4.667l.422-2.602h4.428l.519-3.326h-4.424l.399-2.524h4.667zm-23.443 1.32c.5-3.223-1.541-4.645-4.525-4.645h-5.872l-2.384 15.101h3.928l.921-5.808 2.824 5.808h4.887l-3.763-6.188c2.201-.381 3.645-2.182 3.984-4.268zm-4.126.243c-.261 1.641-1.742 1.884-3.026 1.884h-.38l.604-3.768h.377c1.283 0 2.686.243 2.425 1.884zm-15.817-4.887h-4.286l-8.189 15.101h4.163l1.462-2.624h5.406l.563 2.624h4.186l-3.305-15.101zm-5.286 9.472l2.384-4.805.88 4.805h-3.264zm-12.073-9.472h-3.925l-2.384 15.101h8.629l.522-3.326h-4.708zm-16.66-.5c-4.346 0-8.853 3.203-9.573 7.771-.78 4.885 2.182 8.33 7.032 8.33 4.846 0 8.89-3.445 9.67-8.33.723-4.568-2.783-7.771-7.129-7.771zm3.044 7.791c-.418 2.602-2.641 4.505-4.988 4.505-2.339 0-3.962-1.903-3.544-4.505.321-2.083 2.544-3.986 4.887-3.986 2.346 0 3.965 1.903 3.645 3.986zm-15.956-6.45c-1.224-.759-3.003-1.242-4.525-1.242-3.025 0-5.529 2.005-6.01 5.068-.481 2.925 1.041 3.563 3.406 4.264.798.243 2.283.623 2.1 1.724-.16 1.063-1.22 1.522-2.141 1.522-1.343 0-2.384-.701-3.246-1.563l-2.182 3.167c1.384 1.08 3.145 1.722 5.047 1.722 1.522 0 3.164-.42 4.507-1.423 1.362-1.022 1.962-2.563 2.201-4.064.403-2.445-1.059-3.507-3.063-4.128l-.962-.299c-.642-.22-1.641-.563-1.5-1.444.119-.839 1.16-1.261 1.88-1.261.962 0 1.806.399 2.444 1.002l2.044-3.045zm111.308-52.144c2.548 0 4.864 2.198 5.98 4.318 1.573 2.989.508 4.853-1.214 7.536-3.963 6.173-8.557 11.758-12.135 18.204-2.083 3.752-3.983 11.752-7.656 14.265-2.44 1.669-6.922 1.922-9.75 2.509-1.84.382-6.772 2.34-7.922.188-1.096-2.051 5.801-11.972 6.868-13.814 3.138-5.417 6.453-10.861 10.546-15.614 5.331-6.191-1.419-5.529-5.719-3.11-9.287 5.223-14.546 12.862-19.506 21.889-3.163 5.757-11.449 18.457-17.669 7.901-5.57-9.452 6.077-14.312 10.047-21.247 3.112-5.436 3.665-11.718 6.314-17.282 1.886-3.961 10.037-4.64 14.483-4.955 1.995-.141 2.617-.825 2.875 1.512.206 1.868-2.064 5.21-2.771 6.808-2.014 4.553-1.244 3.818 2.715 1.192 3.885-2.577 7.956-4.581 12.267-6.29 3.557-1.412 8.321-4.01 12.247-4.01m-75.591.151c3.585 0-6.449 16.144-7.482 17.699-1.965 2.957-13.878 15.688-10.976 18.37 2.91 2.69 12.469-5.449 14.621-7.194 5.338-4.329 9.622-9.779 12.727-15.897 2.011-3.962 4.126-10.784 8.986-12.131 5.503-1.525 10.595 5.095 9.701 10.176-1.094 6.218-8.807 10.243-11.821 15.607-1.588 2.826-2.418 5.88-3.15 9.016-.618 2.644-.246 7.088-2.334 9.025-2.486 2.306-10.179 3.97-13.474 3.649-5.477-.535-.423-7.514-.044-10.957.416-3.777-1.592-1.578-4.295.018-4.731 2.793-9.422 5.688-14.445 7.94-4.058 1.819-10.54 4.707-14.566 1.284-5.804-4.934 2.288-13.032 5.241-17.306 4.745-6.87 8.834-13.962 12.231-21.598 1.836-4.128 4.769-4.741 9.058-5.644 3.025-.637 7.008-2.057 10.022-2.057m148.859.149c3.912 0-3.794 12.668-3.141 14.4 5.345-4.348 12.491-13.948 20.163-13.651 3.862.149 5.406 2.368 3.38 5.669-1.682 2.741-5.425 8.482-8.364 10.013-3.671 1.912-7.856-.715-11.599 1.227-7.084 3.676-10.772 12.162-14.419 18.801-2.537 4.62-7.506 14.414-14.102 10.086-5.849-3.839-4.296-10.691-.348-15.067 2.458-2.724 5.472-4.977 7.479-8.096 2.241-3.482 3.277-8.256 4.32-12.231 1.208-4.603 1.457-8.332 6.721-9.595 3.034-.727 6.785-1.556 9.91-1.556"/><path d="M507.822 423.294l-12.427 3.152c-1.647.418-2.991.964-4.651.677-3.066-.531-5.326-3.998-8.527-3.8-4.057.252-9.373 4.575-12.745 6.538-4.742 2.76-9.526 5.547-14.053 8.655-5.926 4.069-13.468 9.504-16.107 16.487-2.131 5.638.414 13.698 6.773 15.277 6.204 1.54 13.302-3.451 18.185-6.642 1.135-.741 9.967-8.009 11.248-6.799-1.195 4.677-6.116 11.801-10.618 13.871-2.945 1.354-6.665 1.626-9.759 2.645-4.401 1.45-9.824 3.414-12.641 7.342-3.67 5.118.175 11.901 6.606 10.761 7.096-1.259 12.826-7.471 18.152-11.764 3.546-2.858 6.256-3.741 10.607-4.62 2.835-.572 7.621-.659 9.278-3.51 3.242-5.577-5.869-.793-6.396-3.509-.174-.895 4.394-5.082 4.884-5.648 1.569-1.811 3.063-3.664 4.519-5.566 4.962-6.484 9.633-13.228 13.462-20.452.682-1.288 6.562-13.482 4.21-13.095zm-19.529 12.261c-4.516 7.724-11.603 14.295-18.961 19.277-2.066 1.399-6.942 5.278-9.637 4.908-5.114-.701-.491-6.324.885-8.046 5.303-6.638 11.58-12.671 18.963-16.944 3.691-2.137 13.714-7.919 8.75.805-5.361 9.168.47-.826 0 0zm-79.894-13.612c-19.109 0-32.948 10.863-43.965 25.516-4.742 6.307-7.854 14.92-.539 20.691 5.825 4.596 13.641 1.653 19.954-.258 5.567-1.685 13.709-3.585 18.214-7.471 1.051-.906 4.486-4.72 3.862-6.232-.733-1.777-5.152.941-6.35 1.425-4.551 1.84-16.38 8.41-19.732 2.912-.884-1.45-2.162-4.934-1.417-6.684 1.377-3.233 10.783-3.054 13.938-3.618 7.514-1.343 16.628-2.546 21.533-9.07 2.479-3.297 6.009-10.035 3.551-14.07-1.824-2.994-5.916-3.141-9.049-3.141zm-11.654 17.925c-1.897 1.42-16.039 7.816-11.716 1.438 2.789-4.115 8.675-12.315 14.223-12.315 5.51 0-.339 9.254-2.507 10.877z"/></svg>