<svg xmlns="http://www.w3.org/2000/svg" viewBox="0 0 610 300" enable-background="new 0 0 610 300"><path fill="#00A9DD" d="M299.377 91.527h16.443l-4.296 18.765h-16.149l-5.379 25.675c-.618 2.616-1.381 5.389-1.381 8.004 0 2.606 1.381 4.758 6.145 4.758 4.919 0 7.542-.305 9.993-.464l-4.611 21.994c-5.382.926-10.927 1.696-16.454 2.003-6.445 0-13.371 0-19.214-3.238-5.227-2.92-8.313-9.219-8.313-15.073 0-4.304.923-7.225 1.689-10.896l7.079-32.762h-13.524l4.293-18.765h13.232l5.379-24.146h30.443l-5.375 24.145zm28.292 0h29.528l-2.168 10.462h.329c6.142-7.53 14.907-12.466 25.053-12.466 10.457 0 19.543 3.406 21.521 13.236 6.624-8.3 15.55-13.236 26.148-13.236 15.528 0 25.522 7.236 25.522 23.69 0 3.682-1.228 9.071-1.836 12.606l-9.694 45.525h-30.446l8.158-38.141c.303-1.53 1.841-9.377 1.841-11.698 0-5.074-2.931-7.67-7.847-7.67-5.992 0-10.301 3.375-11.53 9.219l-10.454 48.289h-30.446l9.239-42.752c.444-2.013 1.215-5.221 1.215-7.383 0-5.074-2.767-7.373-7.703-7.373-7.529 0-11.374 4.915-12.745 11.825l-9.846 45.683h-30.443l16.604-79.816zm148.882-29.978h30.449l-22.765 109.794h-30.435zm-273.68 46.552l-.019-.129-23.11-50.895-23.015 50.895-.019.129c-1.425 3.178-2.216 6.682-2.216 10.403 0 13.967 11.292 25.338 25.249 25.338 14.051 0 25.35-11.371 25.35-25.338.001-3.721-.796-7.225-2.22-10.403m-23.078 31.072c-11.401 0-20.603-9.288-20.603-20.689 0-3.01.637-5.914 1.809-8.479l.008-.1 18.785-41.398-14.688 43.382c-.822 2.143-1.014 4.393-1.014 6.683.001 11.335 7.05 20.601 15.703 20.601"/><path fill="#00A9DD" d="M254.875 183.515h-5.235l.931-4.117h14.736l-.91 4.117h-5.288l-3.908 17.885h-4.236zm20.23 8.517h-7.022l-1.165 5.361h7.906l-.902 4.006h-12.137l4.812-22.001h11.731l-.897 4.017h-7.467l-1.044 4.669h7.082zm9.012-8.913c.356-.098.859-.159 1.649-.159 1.708 0 2.992.781 2.915 2.547-.104 2.151-1.852 3.683-4.146 3.683h-1.729l1.311-6.071zm-8.198 18.281h4.175l1.892-8.686h1.293c1.667 0 2.457.82 2.526 3.504.064 2.706.171 4.591.316 5.182h4.344c-.292-.907-.3-3.779-.455-6.269-.08-1.993-.533-3.426-1.689-4.016v-.098c2.612-.909 4.641-2.931 4.804-6.199.099-2.054-.76-3.424-2.005-4.284-1.333-.968-3.262-1.264-5.144-1.264-1.967 0-3.982.197-5.315.573l-4.742 21.557zm32.579 0l1.641-9.069c.434-2.379 1.022-5.42 1.737-8.589h-.102c-1.212 2.844-2.599 5.873-3.803 8.291l-4.478 9.013h-3.303l-.273-8.914c-.072-2.419-.072-5.45-.04-8.39h-.059c-.701 2.903-1.448 6.239-2.064 8.589l-2.395 9.069h-3.883l6.016-21.991h5.682l.211 8.37c.019 2.064.107 4.553.019 6.991h.12c.88-2.439 2.061-5.017 3.016-7.01l4.071-8.351h5.73l-3.728 21.991h-4.115zm16.106-3.562c-2.864 0-4.001-2.309-3.862-5.421.206-4.174 2.789-9.465 6.338-9.465 3.115 0 3.87 2.656 3.731 5.389-.179 4.145-2.773 9.496-6.177 9.496h-.03zm-.717 3.918c2.963 0 5.545-1.174 7.47-3.21 2.353-2.427 3.8-6.365 3.993-10.323.249-5.27-2.329-9.171-7.553-9.171-2.88 0-5.5 1.204-7.448 3.188-2.374 2.518-3.894 6.398-4.087 10.346-.241 5.123 2.438 9.17 7.582 9.17h.043zm27.294-.356l1.635-9.069c.447-2.379 1.02-5.42 1.742-8.589h-.096c-1.207 2.844-2.593 5.873-3.8 8.291l-4.486 9.013h-3.295l-.284-8.914c-.059-2.419-.059-5.45-.029-8.39h-.062c-.698 2.903-1.443 6.239-2.061 8.589l-2.409 9.069h-3.867l6.011-21.991h5.679l.211 8.37c.024 2.064.104 4.553.024 6.991h.12c.878-2.439 2.053-5.017 3-7.01l4.079-8.351h5.73l-3.731 21.991h-4.111zm19.831-9.368h-7.033l-1.164 5.361h7.916l-.904 4.006h-12.146l4.82-22.001h11.734l-.897 4.017h-7.478l-1.041 4.669h7.082zm15.654 8.776c-1.089.512-2.872.948-5.246.948-5.264 0-8.602-3.524-8.315-9.328.241-5.006 2.422-8.846 5.527-11.057 2.122-1.58 4.582-2.318 7.379-2.318 2.141 0 3.731.551 4.304.907l-1.362 3.82c-.557-.325-1.841-.721-3.549-.721-1.697 0-3.356.581-4.609 1.698-1.718 1.531-2.933 4.037-3.072 7.106-.171 3.534 1.507 5.884 4.983 5.884 1.405 0 2.797-.267 3.779-.721l.181 3.782zm15.352 0c-1.092.512-2.869.948-5.24.948-5.27 0-8.594-3.524-8.323-9.328.241-5.006 2.427-8.846 5.527-11.057 2.122-1.58 4.571-2.318 7.368-2.318 2.157 0 3.744.551 4.312.907l-1.357 3.82c-.535-.325-1.849-.721-3.552-.721-1.708 0-3.351.581-4.603 1.698-1.732 1.531-2.933 4.037-3.075 7.106-.174 3.534 1.504 5.884 4.986 5.884 1.4 0 2.797-.267 3.779-.721l.178 3.782zm8.553-8.704l2.171-4.74c.597-1.273 1.223-2.971 1.79-4.303h.091c.016 1.332.016 3.1.048 4.303l.161 4.74h-4.261zm4.261 3.581l.144 5.714h4.448l-1.255-22.002h-5.428l-10.724 22.002h4.52l2.604-5.714h5.691zm5.642 5.715l4.823-21.991h4.967l2.208 8.37c.658 2.813 1.092 5.103 1.44 7.522h.078c.201-2.25.618-4.68 1.306-7.896l1.729-7.996h3.974l-4.823 21.991h-4.378l-2.347-8.774c-.747-3.011-1.172-4.996-1.568-7.661h-.096c-.318 2.132-.923 5.232-1.678 8.746l-1.689 7.688h-3.946zm23.228-21.992l-4.823 21.992h4.226l4.82-21.992zm17.107 21.4c-1.092.512-2.858.948-5.246.948-5.259 0-8.599-3.524-8.31-9.328.233-5.006 2.406-8.846 5.519-11.057 2.133-1.58 4.582-2.318 7.371-2.318 2.149 0 3.739.551 4.317.907l-1.368 3.82c-.541-.325-1.849-.721-3.557-.721-1.699 0-3.348.581-4.611 1.698-1.708 1.531-2.923 4.037-3.067 7.106-.166 3.534 1.512 5.884 4.981 5.884 1.416 0 2.81-.267 3.798-.721l.173 3.782zm8.562-8.704l2.163-4.74c.586-1.273 1.223-2.971 1.785-4.303h.096c.019 1.332.027 3.1.048 4.303l.153 4.74h-4.245zm4.266 3.581l.131 5.714h4.437l-1.234-22.002h-5.438l-10.724 22.002h4.531l2.585-5.714h5.712zm-226.732 10.651h4.234l-3.91 17.886h7.611l-.913 4.096h-11.834zm16.78 18.429c-2.85 0-4.004-2.309-3.851-5.419.203-4.176 2.778-9.466 6.329-9.466 3.123 0 3.883 2.656 3.739 5.391-.193 4.145-2.767 9.494-6.182 9.494h-.035zm-.706 3.92c2.971 0 5.548-1.176 7.47-3.21 2.358-2.428 3.814-6.366 3.993-10.323.254-5.272-2.326-9.172-7.558-9.172-2.882 0-5.503 1.205-7.443 3.189-2.385 2.517-3.889 6.398-4.081 10.344-.244 5.125 2.433 9.172 7.582 9.172h.037zm19.026-18.569c.444-.098 1.07-.156 1.892-.156 3.434 0 5.053 1.884 4.879 5.389-.131 2.764-.942 5.082-2.374 6.78-1.386 1.669-3.45 2.536-5.743 2.536-.725 0-1.354-.021-1.847-.129l3.193-14.42zm-8.238 17.946c.988.199 3.032.425 5.414.425 4.29 0 7.25-.868 9.635-2.943 2.545-2.171 4.357-6.069 4.56-10.372.139-3.091-.72-5.282-2.323-6.762-1.552-1.53-4.015-2.201-7.223-2.201-1.844 0-3.645.147-5.363.484l-4.7 21.369zm27.173-17.946c.442-.098 1.06-.156 1.887-.156 3.442 0 5.053 1.884 4.892 5.389-.139 2.764-.947 5.082-2.395 6.78-1.36 1.669-3.434 2.536-5.73 2.536-.739 0-1.357-.021-1.849-.129l3.195-14.42zm-8.24 17.946c.993.199 3.038.425 5.419.425 4.285 0 7.234-.868 9.635-2.943 2.537-2.171 4.341-6.069 4.555-10.372.155-3.091-.715-5.282-2.323-6.762-1.547-1.53-4.015-2.201-7.218-2.201-1.849 0-3.645.147-5.369.484l-4.699 21.369zm28.492-3.297c-2.848 0-4.001-2.309-3.849-5.419.203-4.176 2.778-9.466 6.327-9.466 3.123 0 3.87 2.656 3.742 5.391-.182 4.145-2.781 9.494-6.188 9.494h-.032zm-.715 3.92c2.963 0 5.548-1.176 7.478-3.21 2.358-2.428 3.8-6.366 3.993-10.323.254-5.272-2.326-9.172-7.561-9.172-2.88 0-5.5 1.205-7.438 3.189-2.385 2.517-3.889 6.398-4.084 10.344-.252 5.125 2.433 9.172 7.574 9.172h.038z"/><path fill="#EC6608" d="M193.538 58.597l20.166 44.429.019.169c2.104 4.649 3.263 9.851 3.263 15.309 0 20.582-16.617 37.273-37.268 37.273-20.568 0-37.174-16.692-37.174-37.273 0-5.458 1.151-10.659 3.262-15.309l.03-.169 20.096-44.389c-27.218 6.287-47.547 30.689-47.547 59.866 0 33.927 27.513 61.428 61.415 61.428 33.992 0 61.508-27.5 61.508-61.428.001-29.247-20.409-53.688-47.77-59.906"/></svg>