<svg xmlns="http://www.w3.org/2000/svg" viewBox="0 0 610 300" enable-background="new 0 0 610 300"><path d="M217.536 167.909c.282 4.412-1.411 6.91 0 10.608 5.439.927 13.2-.47 16.266 2.829-6.833 1.89-15.065 2.38-12.73 13.437 3.635 1.787 10.133.711 14.144 2.122-2.674 1.098-5.743 1.8-9.194 2.121-.695 2.841-.866 6.206-.707 9.901 3.894 2.472 12.364.365 16.973 2.122-1.805 3.275-4.479 10.337-1.414 14.144 2.766-9.256 11.121-12.924 20.509-15.559.22-3.152 1.456-6.377 0-9.194-2.15-.444-6.092.905-7.072-.707 5.731-3.463 14.389-4 12.73-14.852-3.442-1.712-11.809.048-14.144-.707 6.127-1.652 11.062-4.496 16.973-6.365v-9.901l-.051-.007c-.001.001-39.99 2.879-52.283.008zm18.387-92.646c-21.972 5.138-33.913 20.307-31.825 49.505 2.666 19.258 17.21 26.637 22.631 43.14-.899-4.995-.606-11.181-1.415-16.266-4.476-11.58-20.66-21.03-20.173-35.885.082-2.49.089-29.967 40.915-29.967 3.075 0 6.117.138 8.961.788 13.889 3.177 28.657 18.943 26.167 32.532-3.251 17.745-21.914 26.851-21.312 47.055 1.224-11.905 18.303-21.195 21.312-34.325 7.56-32.973-9.267-60.976-45.261-56.577z" fill-rule="evenodd" clip-rule="evenodd" fill="#5B5B5B"/><path d="M314.064 83.213c3.963 0 6.395 1.891 7.925 3.512l-.9.991c-1.53-1.711-3.692-3.152-7.024-3.152-7.114 0-11.437 5.403-11.437 13.958 0 8.556 4.142 14.139 11.077 14.139 2.882 0 5.584-.9 7.115-2.432v-9.816h-7.385v-1.261h8.825v11.527c-1.801 1.981-4.773 3.333-8.646 3.333-7.564 0-12.518-6.124-12.518-15.49 0-9.365 5.133-15.309 12.968-15.309zm14.706 8.735h1.17l.181 4.053h.09c1.44-2.612 3.513-4.593 6.124-4.593.721 0 1.351.09 2.071.45l-.36 1.261c-.721-.27-1.081-.36-1.892-.36-1.98 0-4.322 1.531-6.033 5.764v14.95h-1.351v-21.525zm13.459 0h1.351v13.689c0 4.773 1.531 7.115 5.224 7.115 2.701 0 4.683-1.441 7.385-4.683v-16.121h1.351v21.524h-1.171l-.18-3.692h-.091c-2.161 2.521-4.412 4.233-7.385 4.233-4.412 0-6.483-2.612-6.483-8.195v-13.87zm23.854 23.415v8.105h-1.351v-31.52h1.17l.181 2.792h.09c2.161-1.711 4.773-3.332 7.475-3.332 5.854 0 8.646 4.323 8.646 10.987 0 7.295-4.413 11.618-9.546 11.618-2.071 0-4.323-.991-6.664-2.702v4.052zm6.754-2.611c4.684 0 8.016-4.323 8.016-10.357 0-5.494-1.981-9.726-7.295-9.726-2.252 0-4.683 1.351-7.475 3.782v13.329c2.611 2.161 5.043 2.972 6.754 2.972zm16.641 2.611v8.105h-1.351v-31.52h1.17l.181 2.792h.09c2.161-1.711 4.773-3.332 7.475-3.332 5.854 0 8.646 4.323 8.646 10.987 0 7.295-4.413 11.618-9.546 11.618-2.071 0-4.323-.991-6.664-2.702v4.052zm6.753-2.611c4.684 0 8.016-4.323 8.016-10.357 0-5.494-1.981-9.726-7.295-9.726-2.252 0-4.683 1.351-7.475 3.782v13.329c2.612 2.161 5.044 2.972 6.754 2.972zm23.36-21.344c5.134 0 9.546 4.143 9.546 11.347 0 7.115-4.412 11.257-9.546 11.257-5.133 0-9.546-4.143-9.546-11.257 0-7.204 4.413-11.347 9.546-11.347zm0 21.344c4.593 0 8.105-4.053 8.105-9.997s-3.513-10.086-8.105-10.086-8.105 4.143-8.105 10.086 3.512 9.997 8.105 9.997zm-103.275 34.177h-12.113l-3.737 10.627h-1.441l10.626-29.719h1.262l10.626 29.719h-1.53l-3.693-10.627zm-.45-1.261l-2.071-5.944c-1.262-3.602-2.342-6.664-3.423-10.356h-.18c-1.081 3.692-2.161 6.754-3.423 10.356l-2.116 5.944h11.213zm17.266-10.176c2.973 0 4.863 1.351 6.305 2.702l-.901.991c-1.44-1.351-3.151-2.432-5.403-2.432-4.593 0-8.195 4.143-8.195 10.086 0 5.943 3.242 9.996 8.195 9.996 2.432 0 4.503-1.171 6.034-2.611l.811.99c-1.801 1.621-4.053 2.882-6.845 2.882-5.493 0-9.636-4.143-9.636-11.257-.001-7.205 4.502-11.347 9.635-11.347zm19.22 0c2.612 0 4.413.991 6.484 2.521h.09l.181-1.981h1.171v31.52h-1.352v-8.555l.09-4.323c-1.98 1.801-4.412 3.422-7.384 3.422-5.404 0-8.916-3.962-8.916-11.257 0-6.935 4.413-11.347 9.636-11.347zm-.63 21.343c2.521 0 4.772-1.351 7.204-3.782v-13.329c-2.432-2.161-4.412-2.972-6.664-2.972-4.593 0-8.105 4.503-8.105 10.086-.001 5.944 2.701 9.997 7.565 9.997zm15.366-20.803h1.351v13.689c0 4.773 1.531 7.114 5.224 7.114 2.701 0 4.683-1.44 7.385-4.683v-16.121h1.351v21.524h-1.171l-.18-3.692h-.091c-2.161 2.521-4.412 4.232-7.385 4.232-4.412 0-6.483-2.611-6.483-8.195v-13.868zm21.715-7.025c0-.991.72-1.531 1.53-1.531s1.531.54 1.531 1.531c0 .901-.721 1.531-1.531 1.531s-1.53-.63-1.53-1.531zm.81 7.025h1.351v21.524h-1.351v-21.524zm7.002 18.011c1.801 1.531 3.782 2.792 7.024 2.792 3.603 0 5.493-2.161 5.493-4.593 0-2.882-2.882-4.143-5.403-5.043-3.332-1.171-7.024-2.432-7.024-6.124 0-2.972 2.342-5.583 6.755-5.583 2.161 0 4.412.9 5.943 2.161l-.811 1.081c-1.44-1.081-2.972-1.981-5.224-1.981-3.602 0-5.223 2.116-5.223 4.233 0 2.521 2.611 3.602 5.223 4.593 3.423 1.306 7.205 2.341 7.205 6.574 0 3.152-2.521 5.943-7.024 5.943-3.242 0-5.944-1.351-7.835-2.972l.901-1.081zm20.202-16.75h-3.423v-1.081l3.423-.18.18-6.304h1.171v6.304h6.394v1.261h-6.394v14.77c0 2.791.63 4.772 3.782 4.772.811 0 1.981-.36 2.792-.721l.45 1.171c-1.261.45-2.611.811-3.332.811-3.963 0-5.043-2.521-5.043-6.214v-14.589zm19.489-1.801c5.134 0 9.546 4.143 9.546 11.347 0 7.114-4.412 11.257-9.546 11.257-5.133 0-9.546-4.143-9.546-11.257 0-7.205 4.413-11.347 9.546-11.347zm0 21.343c4.593 0 8.105-4.053 8.105-9.996 0-5.944-3.513-10.086-8.105-10.086s-8.105 4.143-8.105 10.086c-.001 5.943 3.512 9.996 8.105 9.996zm-133.228 15.085h1.441v29.719h-1.441v-29.719zm8.654-2.792h1.352v9.636l-.09 4.323c2.251-1.892 4.953-3.513 7.654-3.513 5.854 0 8.646 4.323 8.646 10.987 0 7.295-4.413 11.617-9.546 11.617-2.071 0-4.503-.99-6.574-2.521h-.09l-.181 1.981h-1.171v-32.51zm8.106 31.79c4.684 0 8.016-4.322 8.016-10.356 0-5.493-1.981-9.727-7.295-9.727-2.252 0-4.773 1.352-7.475 3.783v13.328c2.521 2.161 5.043 2.972 6.754 2.972zm15.289-20.803h1.171l.181 4.053h.09c1.441-2.612 3.513-4.594 6.124-4.594.721 0 1.351.091 2.071.45l-.36 1.262c-.721-.271-1.081-.36-1.892-.36-1.98 0-4.322 1.53-6.033 5.764v14.949h-1.352v-21.524zm12.817-7.024c0-.991.72-1.531 1.53-1.531s1.531.54 1.531 1.531c0 .9-.721 1.53-1.531 1.53s-1.53-.63-1.53-1.53zm.81 7.024h1.352v21.523h-1.352v-21.523zm16.666-.541c2.612 0 4.413.991 6.664 2.702l-.09-4.053v-9.096h1.352v32.511h-1.171l-.181-2.882h-.09c-1.801 1.801-4.232 3.422-7.204 3.422-5.404 0-8.916-3.962-8.916-11.257 0-6.934 4.413-11.347 9.636-11.347zm-.63 21.344c2.521 0 4.772-1.351 7.204-3.782v-13.328c-2.432-2.162-4.412-2.973-6.664-2.973-4.593 0-8.105 4.503-8.105 10.087 0 5.943 2.702 9.996 7.565 9.996zm23.867-21.344c5.134 0 9.546 4.143 9.546 11.348 0 7.114-4.412 11.257-9.546 11.257-5.133 0-9.546-4.143-9.546-11.257 0-7.205 4.413-11.348 9.546-11.348zm0 21.344c4.593 0 8.105-4.053 8.105-9.996s-3.513-10.087-8.105-10.087-8.105 4.144-8.105 10.087 3.512 9.996 8.105 9.996z"/></svg>