<svg xmlns="http://www.w3.org/2000/svg" viewBox="0 0 610 300" enable-background="new 0 0 610 300"><path d="M209.9 92.267c21.188-2.742 38.147 6.275 47.536 16.498 9.774 10.643 19.572 35.237 11.224 57.415-8.596 22.835-33.413 37.61-60.74 34.317-21.245-2.561-38.911-20.778-44.234-40.257-9.639-35.264 17.945-64.314 46.214-67.973zm-1.98 54.116c.152 10.137 15.264 11.789 17.826 3.299 2.472-8.191-3.042-14.153-11.224-11.879-4.555 1.267-6.672 3.916-6.602 8.58zm161.753-54.775c-16.022 11.473-28.513 25.538-30.37 47.515-.281 3.318.353 7.072 0 10.559-4.043 39.924-37.525 57.182-89.13 50.816 15.23-9.49 28.551-26.373 30.37-48.836 1.412-17.442 3.978-32.233 15.185-43.556 15.755-15.917 39.575-18.623 73.945-16.498zm87.81 108.89h-45.555c0-11.994-.546-39.189-.546-54.378 0-5.577-3.953-8.932-8.697-8.976-11.309-.105-11.48 17.676 0 18.478v44.876c-45.528 2.465-70.281-53.609-44.235-87.772 7.478-9.808 22.489-19.506 37.633-21.118 33.597-3.577 57.758 19.4 61.4 48.175 2.479 19.59-1.822 39.025 0 60.715z"/></svg>