<svg xmlns="http://www.w3.org/2000/svg" viewBox="0 0 610 300" enable-background="new 0 0 610 300"><g fill="#477D4F"><path d="M138.575 106.337h16.668v16.669h-16.668z"/><path fill-rule="evenodd" clip-rule="evenodd" d="M107.62 106.337h15.716v16.669h-15.716c-17.097 0-30.955 13.859-30.955 30.956 0 17.096 13.859 30.955 30.955 30.955 17.097 0 30.955-13.859 30.955-30.955v-15.716h16.668v15.716c0 26.302-21.321 47.623-47.623 47.623-26.302 0-47.624-21.322-47.624-47.623.001-26.303 21.322-47.625 47.624-47.625m15.716 47.625c0 8.68-7.036 15.716-15.716 15.716s-15.716-7.036-15.716-15.716 7.036-15.716 15.716-15.716h15.716"/><path d="M105.952 122.768h3.334v15.716h-3.334zm17.146 29.527h15.716v3.333h-15.716z"/></g><path fill="#477D4F" d="M230.331 172.682l-1.476 25.734c-5.697 2.113-10.801 3.169-15.312 3.169-10.617 0-19.556-3.76-26.812-11.282-8.117-8.431-12.176-20.366-12.176-35.806 0-14.449 3.813-26.048 11.438-34.798 7.625-8.708 17.812-13.063 30.563-13.063 4.142 0 8.364.747 12.668 2.24v26.232c-3.812-3.813-7.727-5.719-11.746-5.719-5.249 0-9.347 2.216-12.299 6.646-2.952 4.469-4.428 10.647-4.428 18.532 0 3.821.369 7.235 1.107 10.243.738 3.007 1.792 5.548 3.167 7.619 1.375 2.075 3.066 3.659 5.074 4.757 2.007 1.096 4.305 1.645 6.887 1.645 4.428.001 8.878-2.048 13.345-6.149zm79.237 28.903h-26.505l-1.906-12.053h-17.28l-2.091 12.053h-26.505l22.815-94.95h31.363l20.109 94.95zm-31.424-32.039l-1.661-11.069c-.039-.04-.123-.593-.246-1.66-.084-.901-.514-4.467-1.291-10.7-.084-.696-.185-1.649-.308-2.86-.123-1.208-.286-2.737-.492-4.581l-.799-8.978c-.084.861-.193 1.825-.338 2.89-.145 1.067-.299 2.235-.461 3.505-.285 2.544-.492 4.305-.615 5.289s-.206 1.579-.246 1.783l-1.783 11.5-2.583 14.882h10.823zM364.851 201.585h-44.892v-94.95h25.644v72.196h19.248v22.754zm5.487 0v-94.95h47.659v22.753h-22.015v12.115h19.74v22.753h-19.74v14.574h22.015v22.753h-47.659zM449.814 201.585h-25.644v-94.95h45.323v22.753h-19.679v12.115h18.326v22.753h-18.326v37.329zm51.512 0h-25.644v-94.95h45.323v22.753h-19.679v12.115h18.326v22.753h-18.326v37.329zm51.511 0h-25.644v-94.95h25.644v94.95z"/></svg>