<svg xmlns="http://www.w3.org/2000/svg" xmlns:xlink="http://www.w3.org/1999/xlink" viewBox="7 270.89 610 300" enable-background="new 7 270.89 610 300"><defs><path id="a" d="M195.703 322.86h242.594v166.058h-242.594z"/></defs><clipPath id="b"><use xlink:href="#a" overflow="visible"/></clipPath><path clip-path="url(#b)" fill="#95C11F" d="M338.305 418.745c.735-2.334 2.453-4.066 3.621-6.215 1.698-3.125 1.816-7.051 3.407-9.974 3.529-6.485 12.179-16.785 4.008-24.272-.117.58-.157 1.161-.123 1.752l-1.119-2.729c.497.324.895.658 1.242.976.942-5.499 2.083-11.305 1.114-16.894-.724-4.175-7.503-11.166-7.503-12.754 0 .675.608 1.126.701 1.739-2.243-3.376-4.345-6.824-8.072-8.698.78.112 1.551.269 2.313.47-7.608-6.942-20.002-5.23-29.422-4.599.646-.104 1.276-.067 1.889.111.135.291-7.538 1.912-8.049 1.989-.247.028-.26-.03.116-.236-11.845 3.624-19.261 17.338-18.318 28.83.552 6.73-1.995 30.016 5.901 29.902l-.107-.035c3.198 1.429 5.703 10.902 7.096 14.52-2.94-3.911-5.261-13.07-9.595-13.695 2.251-1.171 6.948 12.609 7.669 13.855 13.123 22.693-27.35 29.445-40.481 39.445 2.688 0 4.543.173 6.943-.818-.25.27-.497.543-.741.818 5.764-1.437 13.126-3.804 18.642-6.629l-.464.573c6.616-2.4 10.525-6.144 16.529-9.668-.828.931-1.701 1.822-2.615 2.669.997-.567 1.967-1.18 2.907-1.837-.511.338-.634.355-.525.215 9.47-9.13 9.795-18.078 3.859-28.482-1.771-3.104-3.169-15.048-7.783-14.556l-.618-.21c.119-.045.245-.065.373-.059l-.123-.134.201.043c-2.538-3.174-2.069-7.023-1.494-10.733.94-6.069.942-7.593-.107-14.033l.347.672c-2.407-5.568.056-12.258 3.285-16.929 5.483-7.931 12.412-11.756 22.106-11.508-.762.137-1.519.297-2.272.478 11.236 1.398 24.313.153 29.086 12.334l.116-.276c3.729 3.92 4.174 9.965 3.812 15.123l.729-.534c-1.146 4.786-.419 8.987.025 13.059.821 7.519-.196 10.284-4.036 16.621-2.046 3.376-1.868 6.193-3.2 10.147-.735 2.183-2.23 3.823-3.172 5.819-.389.824-2.187 9.444-2.059 9.29l-.164-.897c-.295.692-.549 1.401-.762 2.122 5.809 4.588 4.03 9.54 12.54 11.891-1.582-.68-3.188-1.739-4.677-2.935l.02.301c-2.293-1.593-4.469-3.609-5.417-6.297.443.715.951 1.389 1.514 2.014-.242-.356-.425-.738-.547-1.147.658 4.267 16.501 10.446 19.008 11.048-1.16-6.919-9.577-7.304-13.649-11.668-2.375-2.548-3.449-5.984-3.905-9.375m9.428 1.145c.263 10.647 5.035 16.584 13.087 23.262.945-1.454 1.726-1.592 2.029-3.343l-.293.745.098-.289c-3.494-1.218-5.284-3.723-9.14-4.507-6.473-1.315-13.734 1.595-18.29 6.175 5.45-1.686 12.107-2.395 17.735-1.279 2.479.491 6.213 3.312 8.587 3.045 2.433-.273 2.993-.234 2.255-2.837-.626-2.207-5.27-5.726-6.879-7.758-3.457-4.363-6.507-8.267-9.189-13.214"/><defs><path id="c" d="M195.703 322.86h242.594v166.058h-242.594z"/></defs><clipPath id="d"><use xlink:href="#c" overflow="visible"/></clipPath><path clip-path="url(#d)" d="M417.401 474.632c-1.767-.247-1.652-.211-1.175-1.976.482-1.785.926-3.543 1.221-5.372.417-2.588.468-3.357 1.165-.478.371 1.531.809 3.032 1.298 4.529.136.417 1.045 2.257.832 2.776-.257.621-2.851.593-3.341.521m8.164 7.903c1.101-1.306-.404-3.656-.835-4.95-.999-2.998-2.134-5.914-3.241-8.871-1.163-3.107-1.474-6.474-2.626-9.567-1.131-3.034-2.477-2.002-3.004.75-1.114 5.822-2.667 11.761-4.207 17.461-.447 1.652-.847 3.801 1.696 4.172 2.662.388.521-4.43 2.101-4.43 1.555.417 2.876.184 4.408.037.519-.05 1.3-.229 1.755.053.46.287 2.042 8.362 3.953 5.345m-14.083-18.448c.28-.984 1.154-4.431-.276-5.037-2.023-.857-2.368 3.415-2.457 4.551-.103 1.324.021 8.857-1.186 8.857-.549 0-2.146-8.105-2.474-9.136-.543-1.71-.919-4.232-3.252-3.337-1.878.72-1.822 3.868-1.968 5.575-.286 3.34-.42 6.652-.42 10.01 0 .963-.29 3.427.695 3.914 1.148.568 1.874-1.162 2.126-2.1.48-1.786.264-3.8.346-5.633.046-1.027-.315-3.683.191-4.565.357-.623.037-.571.503.198.779 1.284.879 3.114 1.5 4.5.984 2.194.964 4.797 1.97 6.953 1.314 2.816 2.194-1.43 2.387-2.673l1.247-5.244c.353-2.29.425-4.589 1.068-6.833m-21.361 10.545c-1.767-.247-1.652-.211-1.175-1.976.482-1.785.926-3.543 1.221-5.372.416-2.587.468-3.358 1.165-.478.371 1.531.809 3.032 1.298 4.529.136.417 1.045 2.257.832 2.776-.255.62-2.852.593-3.341.521m8.165 7.903c1.268-1.362-.685-4.489-1.135-5.863-.986-3.008-2.26-5.896-3.283-8.886-.996-2.912-.983-7.453-2.88-9.907-1.861-2.407-2.407 2.157-2.723 3.5-1.206 5.128-2.383 10.333-3.753 15.405-.512 1.897-1.347 3.677 1.233 4.608 3.324 1.199.564-4.293 2.421-4.293 1.554.419 2.875.184 4.408.037.519-.05 1.3-.229 1.755.053.467.291 2.036 8.362 3.957 5.346m-14.605 2.158c-.267-7.519-2.257-14.95-2.769-22.468-.132-1.931-.337-6.716-2.632-2.336-1.715 3.271-2.37 8.053-3.282 11.648-.203.799-.31 3.783-1.046 3.747-.928-.045-2.475-5.797-2.698-6.564-.649-2.237-1.11-4.291-2.138-6.337-.423-.841-1.269-4.511-2.558-4.632-2.524-.237-1.58 7.858-1.753 9.482-.363 3.425-.819 6.628-.891 10.069-.034 1.633-1.042 4.961.783 5.831 1.842.879 1.844-1.131 1.954-2.478.115-1.409.665-13.882 1.316-13.901 1.384 2.029 1.601 5.081 2.199 7.446.557 2.202 1.365 5.853 3.246 7.317 4.223 3.286 3.671-8.73 4.972-10.269.839.176.81 8.94.895 10.086.104 1.405.529 2.784 1.83 3.834.855.688 2.278.978 2.572-.475m-31.014-16.134c-.175-2.49-.048-4.953-.153-7.43-.122-2.876-1.583-.651-1.74 1.239-.303 3.65-.251 7.272-.127 10.928.101 2.965.146 10.029 3.862 11.116 1.19.348 1.802-.324 2.868-.678 2.176-.722 3.242-.544 4.068-3.188 1.125-3.605 1.025-8.184 1.172-11.983.08-2.069-.581-4.363-.9-6.404-.257-1.644-.072-4.473-2.437-3.381-3.164 1.461-1.296 8.79-1.282 11.608.008 1.571-.183 12.662-3.028 10.994-1.594-.935-1.76-5.228-1.938-6.77-.232-1.998-.225-4.043-.365-6.051m-19.782-10.272c-1.253.14-2.629-.227-3.908.123-1.7.465-1.347 1.73-1.241 3.41.169 2.681.346 5.334.409 8.067.04 1.766.139 3.543.228 5.311.088 1.752.129 3.5.176 5.257.024.907-.16 3.127.241 3.932.515 1.064 4.81-.105 5.436-.31 1.512-.495 2.851-.616 3.543-2.262.115-.273.374-1.96.341-2.043-.915-2.26-5.577 2.298-6.305-.928-.226-1-.085-2.308.505-2.829.476-.421 3.835-.023 3.835-1.426.043-.809-.205-1.819-1.014-2.195-1.258-.585-2.528 1.052-3.465-.298-.348-.502-.118-2.209-.172-2.787-.097-1.046-.271-2.079-.414-3.118-.112-.815-1.066-4.155-.389-4.908 1.353-1.504 4.783.773 6.386-.031 1.116-.56.936-1.847-.071-2.465-1.003-.614-3.098-.618-4.121-.5m-6.768-.771c-.465-1.986-1.889 1.083-2.003 1.745-.323 1.868-.232 3.797-.225 5.684.005 1.315.186 7.885-.528 8.036-1.432-1.155-2.058-4.587-2.756-6.292-.591-1.443-1.084-2.947-1.725-4.365-.303-.671-1.267-3.311-2.024-3.491-2.777-.66-2.793 12.552-2.785 14.274.01 2.336-.658 5.398.02 7.628.438 1.438 3.51 4.073 4.794 2.189.774-1.135.287-4.715.261-5.862-.037-1.624-.164-3.207-.395-4.816-.102-.709-.503-1.891-.187-2.491.308 0 1.829 4.336 2.039 4.865.829 2.084 1.592 4.976 3.024 6.718 2.656 3.234 2.793-4.146 2.819-5.694.099-6.039-.474-12.071-.329-18.128m-15.804 12.99c-.09 2.418-.812 8.864-4.977 5.966-2.625-1.826-.777-7.737-.367-10.16.244-1.446.826-5.071 2.775-5.31 2.967-.365 2.644 7.748 2.569 9.504m2.43-5.976c-.162-2.929-1.353-6.277-4.874-6.35-3.002-.063-4.08 2.752-4.963 5.096-1.484 3.941-2.468 8.54-.998 12.686 1.028 2.902 4.1 5.092 7.257 4.656 2.284-.315 2.191-2.407 2.396-4.279.24-2.198.969-4.296 1.194-6.47.179-1.722.084-3.628-.012-5.339m-12.815 11.833c-.535-2.948-.301-6.171-.557-9.16-.126-1.473.744-7.776-1.049-8.064-2.536-.408-1.667 4.42-1.624 5.923.116 4.085-.445 8.346.129 12.4.162 1.144.541 3.18 1.906 3.145 1.981-.05 1.42-2.996 1.195-4.244m-10.522 8.362c1.612.047 9.383-2.868 4.652-4.252-.826-.242-7.431.555-7.431.104.639-3.131 2.065-6.057 2.957-9.118.483-1.659 1.093-3.213 1.738-4.826.714-1.785 1.453-4.579 2.819-6.019 1.1-1.16 2.647-1.414 1.197-3.38-.98-1.329-1.766-.794-3.261-.482-2.242.468-4.421 1.053-6.642 1.599-.721.177-4.072.467-4.075 1.707-.006 2.802 8.101.287 8.822.975 1.014.967-3.042 8.798-3.616 10.239-.832 2.089-1.497 4.242-2.318 6.333-.571 1.455-2.242 3.79-1.984 5.425.48 3.052 5.214 1.563 7.142 1.695m-12.19-10.902c-.919.211-1.974 1.417-2.686.602-.184-.21.151-2.137.197-2.601.132-1.328.363-2.643.589-3.958.171-.992.089-2.965.582-3.839.25-.443-.049-.377.362-.423.119-.013.573 3.424.551 3.247.058.467 1.153 6.809.405 6.972m2.651 1.015c-.222-1.981-1.622-17.366-4.285-16.201-1.144.501-1.588 4.005-1.822 5.027-.437 1.906-1.003 3.769-1.525 5.653-.929 3.36-2.535 7.536-2.462 11.049.017.815.054 1.633.833 1.995.229.106 1.996.097 2.226-.096 1.038-.87.459-3.098 1.165-4.146.527-.782 1.221-.607 2.082-.91 2.07-.729 1.749-.511 2.145 1.859.13.778.131 3.168 1.334 3.148 2.255-.036.381-6.73.309-7.378m-11.517-17.322c-.459-1.985-1.888 1.082-2.002 1.745-.323 1.868-.231 3.797-.224 5.684.005 1.314.184 7.885-.528 8.036-1.433-1.154-2.058-4.587-2.756-6.292-.591-1.443-1.084-2.947-1.725-4.365-.303-.672-1.267-3.311-2.025-3.491-2.779-.658-2.793 12.551-2.785 14.274.01 2.335-.66 5.398.018 7.628.438 1.441 3.511 4.071 4.795 2.189.774-1.134.286-4.716.26-5.862-.037-1.624-.162-3.207-.393-4.816-.102-.708-.503-1.893-.187-2.491.306 0 1.827 4.337 2.037 4.865.828 2.083 1.593 4.976 3.024 6.718 2.656 3.234 2.794-4.147 2.819-5.694.096-6.039-.483-12.071-.328-18.128m-14.536 22.237c.828-.745.213-4.357.218-5.343.011-1.904-.09-3.811-.135-5.714-.033-1.398.562-5.692-1.259-5.965-2.056-.309-1.916 2.507-2.001 3.661-.248 3.384-.333 6.875-.27 10.265.031 1.679-.158 3.245 1.726 3.597.673.126 1.329.143 1.721-.501m-2.227-18.975c.619 1.843 3.164-.424 2.14-1.735-.922-1.179-2.514.622-2.14 1.735m-7.107 20.85c1.672-.523.596-9.53.596-11.06 0-1.465-.003-2.938.032-4.402.069-2.916 1.05-1.959 3.442-1.667 1.244-.057 1.499-3.29.762-3.907 0-.705-8.993-.236-9.249-.223-1.401.072-2.88.645-2.359 2.421.624 2.127 3.475.292 4.769 1.219 1.088.78.142 6.202.002 7.764-.152 1.694-.473 3.392-.657 5.086-.105.966-.613 2.706-.294 3.651.258.762 1.976 1.551 2.956 1.118m-13.401-23.306c-4.105 1.204-5.778 5.977-2.254 8.989 2.206 1.886 4.491 3.338 4.548 6.482.014.778-.172 3.077-.865 3.496-3.054 1.846-3.508-5.539-4.359-6.441-1.002-1.062-2.384.16-2.6 1.38-.24 1.354.558 3.81 1.134 4.991 1.113 2.28 4.287 4.668 6.971 3.337.935-.464 2.622-2.217 3.024-3.198.61-1.491.021-3.013-.341-4.477-.498-2.016-.708-4.056-2.227-5.635-1.121-1.165-3.128-1.57-4.041-2.903-1.219-1.781 1.029-4.51 2.667-2.585.868 1.02.486 3.432 2.652 2.4 2.934-1.398-1.403-6.669-4.309-5.836m-15.363 18.775c.385 4.332 3.084 4.202 6.794 3.666 1.766-.255 2.099-.352 1.556-2.03-.234-.723-.599-1.517-1.28-1.812-.877-.381-2.799.654-3.713.116-.744-.438-.762-4.847-.42-4.847 1.139.413 4.043 1.816 3.964-.601-.05-1.524-2.794-1.861-4.105-2.116-.245-.639.034-6.058.191-6.058 1.201.287 5.885 2.135 5.517-.239-.268-1.725-6.271-3.369-7.481-2.557-1.063.713-.529 4.958-.658 6.301-.318 3.303-.674 6.842-.365 10.177m-9.145-18.595c2.335.221 4.518.614 5.276 3.048.573 1.84.47 4.294.381 6.232-.149 3.263-.71 7.33-3.186 9.612-1.124 1.036-1.833 2.177-2.348.659-.865-2.553-.268-6.321-.475-9.02-.111-1.447-1.292-10.529.352-10.531m-2.919-1.893c-1.767 2.886-1.397 8.16-1.43 11.37-.028 2.7-.003 5.401-.03 8.105-.018 1.819-.741 3.843.991 5.021 2.23 1.517 4.636-.419 6.316-1.763 4.703-3.763 5.158-9.498 4.982-15.136-.089-2.868-.71-6.214-3.774-7.258-.849-.289-6.641-1.014-7.055-.339"/></svg>