<svg xmlns="http://www.w3.org/2000/svg" viewBox="-48 330.9 480 180" enable-background="new -54 330.9 973 180"><style type="text/css">.st0{fill:#F15A22;}.st1{fill:#fff;}</style><path class="st1" d="M331 504.5c-21.7-3.7-33.9-20.2-46.8-36.3-6.4-8-13.5-20-23-24.7-9.2-4.5-22.8-2.1-32.7-2.1v51.3h-24.8v-150.3c18.5-1.8 38-.7 56.6-.3 14 .3 30.1 2.3 39.9 13.4s11.5 28.2 10.1 42.3c-1.5 15.1-8.1 28.4-21.9 35.6 8.9 10.3 17.9 20.6 26.7 30.9 6.4 7.5 13.6 13.7 23.5 15.5 14.7 2.5 34 .5 47.5-6.3.4 5.5 3.2 15.4-.3 19.7-3 3.8-11 6.4-15.2 8.1-12.8 5-26.2 5.5-39.6 3.2m-102.2-92.4c13.2 0 28.8 2.6 41.7-.8 10.8-2.8 14.2-13.4 13.6-23.5-.5-8.7-4-17.2-13.2-19.4-13.3-3.3-28.6-.8-42.2-.8.1 14.5.1 29.5.1 44.5m-236.4-70.2c12.4 0 25.1-.5 37.2 2.8 20.4 5.5 29.2 22.9 30.8 42.9 1.4 18.9-3.5 40.8-20.1 52-16.8 11.3-40.6 7.8-59.8 7.8v45.5h-25.6v-151c10.4.1 25.1 0 37.5 0zm-11.5 80.4c12.2 0 28 2.9 39.6-1.5 10.7-4.1 13.6-16.2 13.9-26.5.2-9.1-1.4-21-11-24.9-12.4-5-29.4-2.5-42.5-3.2v56.1m125.5-15.4c-.8 11 3.9 20.8 15.3 23.2 7.2 1.5 15.2.6 22.6.2 8.5-.4 25.5-1.4 25.5-1.4s2.3 18.4-5.2 20.4c-6.8 1.8-24.2 3.2-30.6 3.5-19.6.9-39.9-1.7-48-22.1-8.5-21.3-8.4-53.6 4.5-73.2 12.1-18.3 38.1-21.6 57.7-14.9 28.2 9.7 25.5 39.9 25.5 64.2-23.2.1-45.1.1-67.3.1m-.1-19.3h43.1c1.4-15.3-6.6-26.4-22.6-25.5-14.9.7-21.4 11.3-20.5 25.5m68 80.9v24h-91.6v-24h91.6"/><path class="st0" d="M423.1 370.7l-2.4-16.1-36.2 4.7-23.8-23.3-13.3 10 22.2 27.8-9.2 31.4 15.6 6 14.1-32.4 33-8.1z"/></svg>