<?xml version="1.0" encoding="utf-8"?>
<!-- Generator: Adobe Illustrator 19.1.0, SVG Export Plug-In . SVG Version: 6.00 Build 0)  -->
<svg version="1.1" id="Layer_1" xmlns="http://www.w3.org/2000/svg" xmlns:xlink="http://www.w3.org/1999/xlink" x="0px" y="0px"
	 viewBox="206 -206 700 700" style="enable-background:new 206 -206 700 700;" xml:space="preserve">
<path d="M640.2-16c-50.5,0.6-92.9-41.7-93.3-92.9c-0.4-53.4,40.1-94.9,94.1-96.1c51.8-1.2,93.9,41.1,94.3,94.7
	C735.9-57.1,695.2-16.5,640.2-16z M841.3-94.1c-11.7-3.9-23.4-7.8-35.3-11.1c-16.4-4.7-25.1,0-30.6,16.2
	C765.1-57.9,754.8-26.7,745,4.7c-1.9,5.8-2.5,12.9-1.6,18.9c1,6.6-1.2,9.7-7,11.9c-9.4,3.5-18.9,6.8-27.7,11.5
	c-12.7,6.8-22.8,5.1-34.7-2.9c-37.8-25.9-76.6-50.7-115-75.6C529.9-50.6,497.6-44,478.7-15c-39.2,60.4-78.1,121-117.3,181.6
	c-15.2,23.4-15.2,46.8-0.2,70.3c13.1,20.5,100.4,163.7,139.7,219.6c7,9.9,12.5,17.1,15.8,20.5c11.5,11.5,21.8,16.8,44.6,16.8
	c29.2,0,65.3-30.8,65.3-64.7c0-16.2-8.4-30.6-17.5-44.2l-88.5-135c-5.8-8.8-6-16.4-0.2-25.1c20.8-31.4,41.3-62.9,62-94.5
	c9-13.6,9.2-13.6,22.6-4.9c17.1,11.3,34.5,22.4,51.8,33.7c13.4,8.8,28.4,10.9,43.1,5.3c35.7-13.6,71.1-27.5,106-42.9
	c24.7-10.9,36-35.7,26.5-60.8c-6.6-17.1-4.9-31.8,1.4-47.4c1.8-4.1,2.7-8.4,4.1-12.7c6.6-21,13.6-41.9,19.9-62.9
	C862.9-80.5,858.8-88.3,841.3-94.1L841.3-94.1z M839.2-52.8c-8.8,27.1-17.9,54-26.1,81.1c-2.5,8.2-6.8,10.1-14.4,7.6
	c-10.9-3.5-21.6-7.2-32.7-10.3c-7.8-2.1-9.7-7.2-7.6-14c10.3-32.3,20.8-64.7,31.6-96.8c1-2.7,4.3-5.5,7.2-6.4
	c1.6-0.6,5.3,2.1,6.6,4.1c6.6,9.4,18.3,13.4,30,9.7c7-2.1,10.5,0,10.5,8.4C843.1-65.1,841.1-58.8,839.2-52.8L839.2-52.8z M351,252.2
	l-86.7,132.5c-9,13.6-17.5,28.1-17.5,44.2c0,33.7,36,64.7,65.3,64.7c22.8,0,33.1-5.3,44.6-16.8c3.3-3.3,8.8-10.5,15.8-20.5
	c14-20.1,34.1-51.1,54.8-83.6L351,252.2L351,252.2z"/>
</svg>
